<?xml version="1.0" encoding="utf-8"?>
<!-- Generator: Adobe Illustrator 21.1.0, SVG Export Plug-In . SVG Version: 6.00 Build 0)  -->
<svg version="1.1" id="Layer_1" xmlns="http://www.w3.org/2000/svg" xmlns:xlink="http://www.w3.org/1999/xlink" x="0px" y="0px"
	 viewBox="0 0 555 274" style="enable-background:new 0 0 555 274;" xml:space="preserve">
<style type="text/css">
	.st0{fill:#0083B3;}
</style>
<g>
	<g>
		<g>
			<path class="st0" d="M201.3,140.9c0.3,2.5,2.1,4,5.8,4c3.9,0,5.3-1.7,5.3-3.2c0-1.5-1.1-2.2-3.4-2.5l-4.3-0.6
				c-5.5-0.8-7.4-3.1-7.4-5.9c0-4.8,4.5-6.8,9.4-6.8c6.1,0,9.4,2.6,9.6,6.8h-4.7c-0.2-2.7-2.1-3.7-5.3-3.7c-1.9,0-4.1,1-4.1,2.9
				c0,1.6,1.2,2.3,3,2.6l6,0.8c5,0.7,6,3.6,6,5.8c0,4.3-3.7,6.9-10.8,6.9c-6.1,0-9.9-2.6-9.9-7.1H201.3z"/>
			<path class="st0" d="M245.7,126.5v3.4h-8v17.5H233V130h-8v-3.4H245.7z"/>
			<path class="st0" d="M254.7,126.5h12.6c4.6,0,8.1,1.5,8.1,5.6c0,3.7-2.6,5.2-5.8,5.4v0.1c4.8,0.2,5.2,2.3,5.4,6.2
				c0.1,1.7,0.3,2.8,0.6,3.6h-5c-0.3-0.6-0.4-2.1-0.5-3.3c-0.2-4.1-1.1-5-5.7-5h-5v8.3h-4.7V126.5z M259.4,136h6.1
				c2.8,0,5-0.6,5-3.1c0-2.5-2.3-2.9-4.8-2.9h-6.3V136z"/>
			<path class="st0" d="M294.5,126.5h5.9l10.7,20.9h-5.6l-2.4-4.7H291l-2.2,4.7h-5L294.5,126.5z M301.4,139.4l-4.4-9.1l-4.4,9.1
				H301.4z"/>
			<path class="st0" d="M336.1,126.5v3.4h-8v17.5h-4.7V130h-8v-3.4H336.1z"/>
			<path class="st0" d="M348,126.5l7.5,16.5l7.4-16.5h4.9l-9.9,20.9h-5.4l-9.9-20.9H348z"/>
			<path class="st0" d="M376.9,126.5h4.7v20.9h-4.7V126.5z"/>
			<path class="st0" d="M409.5,130h-11.9v4.9h11.5v3.4h-11.5v5.7h12.4v3.4h-17.1v-20.9h16.6V130z"/>
			<path class="st0" d="M434.2,126.5h5.9l5.7,16.4h0.1l5.4-16.4h4.7l-7.4,20.9h-5.8l-5.8-16.7h-0.1l-5.6,16.7h-5.7l-7.5-20.9h5
				l5.5,16.4h0.1L434.2,126.5z"/>
		</g>
	</g>
	<g>
		<g>
			<path class="st0" d="M154.5,103.7l-13.7,13.8c-0.8,0.8-0.8,2,0,2.8l15.5,15.5c0.7,0.7,0.8,1.8,0.2,2.6l-33.7,33.8
				c4.3,1.7,9,2.7,13.9,2.7c20.9,0,37.8-16.9,37.8-37.8C174.5,122.6,166.4,110,154.5,103.7z"/>
			<path class="st0" d="M132.9,153.7l-15.4-15.4c-0.7-0.7-0.8-1.8-0.2-2.5l33.5-33.8c-4.3-1.7-9-2.7-14-2.7
				C115.9,99.2,99,116.1,99,137c0,14.4,8.1,27,20,33.3l13.8-13.9C133.6,155.7,133.6,154.5,132.9,153.7z"/>
			<path class="st0" d="M132.9,153.7l-15.4-15.4c-0.7-0.7-0.8-1.8-0.2-2.5l33.5-33.8c-4.3-1.7-9-2.7-14-2.7
				C115.9,99.2,99,116.1,99,137c0,14.4,8.1,27,20,33.3l13.8-13.9C133.6,155.7,133.6,154.5,132.9,153.7z"/>
		</g>
	</g>
</g>
</svg>
