<?xml version="1.0" standalone="no"?>
<!DOCTYPE svg PUBLIC "-//W3C//DTD SVG 1.1//EN" "http://www.w3.org/Graphics/SVG/1.1/DTD/svg11.dtd">
<svg xmlns="http://www.w3.org/2000/svg" xmlns:xlink="http://www.w3.org/1999/xlink" version="1.1" id="Layer_1" x="0px" y="0px" viewBox="0 0 318 522.9" style="enable-background:new 0 0 318 522.9;" xml:space="preserve" width="318" height="522.9000244140625">
<style type="text/css">
	.st0{clip-path:url(#SVGID_2_);}
	.st1{clip-path:url(#SVGID_4_);fill:#121C41;}
</style>
<g>
	<defs>
		<rect id="SVGID_1_" x="-98" width="1268" height="522.9"/>
	</defs>
	<clipPath id="SVGID_2_">
		<use xlink:href="#SVGID_1_" style="overflow:visible;"/>
	</clipPath>
	<g class="st0">
		<defs>
			<polygon id="SVGID_3_" points="231.4,0 10,42.7 2.4,522.9 181.5,522.9 326.5,504.5 326.5,0    "/>
		</defs>
		<clipPath id="SVGID_4_">
			<use xlink:href="#SVGID_3_" style="overflow:visible;"/>
		</clipPath>
		<path class="st1" d="M48.5,246.7v5.7h32.4h4.2c0.6-0.9,2.2-4.2,2.2-12.3c0-5.7-1.3-12.1-1.3-12.1s-13.3-21,2.4-39.2    c13.3-15.5,33.7-6.3,33.7-6.3l22.8-2.8c0,0,16.2,6.1,26,24.7c1.5,3.9,1.5,6.1,5,2.2l5.7-6.3c2.4,16.2-7.9,14.2-7.9,14.2    s1.3,4.4,0.2,13.4l2.4-2.6c0,0,3.9,3.7,0.4,10.1c-0.7,1.7,1.5,4,4.1,1.7l7.7-8.6c0.9,2.4,2.6,18-11.4,23.7h28    c-2-7-3.1-15.8-3.1-25.6c0-6.6,0.6-12.9,1.5-18.2c-0.4-7.4-1.5-7.7-3.1-10.5c-2-3.3-4.4-7.9-5-10.7c-0.4-2.8-2.9-5-2.9-5    s0.7-3.9,2.9-9.4c3.1-7.7,9.6-10.1,12.3-11.4c1.3-0.6,1.3-1.5,0.6-4.2c-0.6-1.7-0.9-1.8-1.5-1.8h-0.2c-0.2,0-0.4,0-0.5-0.2    c0,0-0.2,0-0.2-0.2c-0.2-0.2-0.4-0.4-0.4-0.6c-0.2-0.4-0.4-0.7-0.4-1.3c0-0.7,0.2-1.3,0.6-1.7c0.2-0.6,0.2-1.3,0.2-1.3v-0.2    c0-4.4,3.3-8.1,7.5-8.1c4.2,0,7.5,3.7,7.5,8.1v0.4c0,0.2,0,0.7,0.2,0.9c0.4,0.4,0.6,0.9,0.6,1.7c0,0.6-0.2,0.7-0.4,1.3    c-0.2,0.2-0.4,0.4-0.4,0.6l-0.2,0.2c-0.2,0.2-0.4,0.2-0.6,0.2h-0.2c-0.4,0.2-0.9,0.4-1.5,1.8c-0.7,2.8-0.7,3.7,0.6,4.2    c0.7,0.4,1.5,0.7,2,1.1c0.2,0,0.2,0.2,0.2,0.2c0.2,0.2,0.4,0.4,0.6,0.4c0.2,0.2,0.2,0.2,0.4,0.2c5,3.5,6.8,8.5,7.7,14.5    c0.2,0.4,0.2,0.6,0.2,0.7h-0.2c-2,0.2-1.7,3.1-1.3,5.3c0.7,2.2,10.3,29.1,11.4,39.8c1.5,14.4-7.2,12.9-7.2,12.9v6.6    c14.5,1.5,16.4-10.7,16.8-17.3c0.4-4.2,1.8-28.2,3.1-44.9c5.5,1.7,11.8,2.8,18.2,2.8c5.5,0,10.9-0.6,15.6-1.7    c-14.9-1.3-27.2-7.4-32.6-15.5h-0.2c0.2-1.7,0.4-2.6,0.6-2.6c12.1-72.2-30.6-76.4-30.6-76.4l-34.2-23c0,0-10.9,1.1-16.8,14.9    c0,0-14.7,9.6-36.1,2.4c-0.7-0.4-1.8-0.6-2.8-0.7c-7.4-3.1-15.6-5-24.3-5c-33.7,0-60.9,27.2-60.9,60.9v62.6c0,0,7.2-9,7.2-26.9    c7.2,34.2,0.4,54.1-4,62.6C51.6,235.3,48.5,241.5,48.5,246.7 M98.5,224.8c-0.7,2.4-5.3,12.3-1.7,23.4v4h8.7v-22.3    C102.9,228.5,100.5,226.8,98.5,224.8 M138.6,236.4c-0.4,0.9-2.8,10.3,2.8,16h15.8l-9.4-18l-1.8,0.4    C143.8,235.5,141.2,236,138.6,236.4"/>
		<polygon class="st1" points="109.7,337.8 63.7,337.8 63.7,319.2 108.3,319.2 108.3,304.9 63.7,304.9 63.7,286.1 109.7,286.1     109.7,271 48.5,271 48.5,353.1 109.7,353.1   "/>
		<path class="st1" d="M232.2,271c-12.9,0-25.8,0.2-38.7,0.2v81.9H209v-67.4h23.2c19.7,0,19.9,29.1,0,29.1h-11.8V329h11.8    C272.3,328.8,272.1,271,232.2,271"/>
		<path class="st1" d="M186.1,299.1c0-14.2-10.1-28-29.5-28c-13.1,0-26-0.2-39-0.2v82.1h15.5v-24.8l44.4,30.7l8.8-12.9l-26-17.9    C181.9,327.7,186.1,310.2,186.1,299.1 M170.7,300.2c0,6.6-4.2,14.7-14,14.7h-23.6v-29.6h23.6C166.3,285.5,170.7,293.6,170.7,300.2    "/>
		<path class="st1" d="M277.1,271.4h2v-10.7h-2.4l-3.3,4.6l-3.3-4.6h-2.4v10.7h2v-7.7l3.3,4.8h0.4l3.5-4.6L277.1,271.4z     M261.1,271.4h2v-8.8h3.3v-1.8h-8.8v1.8h3.3L261.1,271.4z"/>
		<path class="st1" d="M95.4,451.3c-1.5,0-2.9-0.3-4.2-0.8c-1.3-0.5-2.4-1.3-3.4-2.2c-1-0.9-1.7-2.1-2.3-3.4    c-0.5-1.3-0.8-2.8-0.8-4.4v-0.1c0-1.5,0.2-2.9,0.7-4.2c0.5-1.3,1.2-2.5,2.1-3.4c0.9-1,2-1.8,3.2-2.3c1.2-0.6,2.6-0.8,4.1-0.8    c1.6,0,3.1,0.3,4.3,0.9c1.2,0.6,2.3,1.4,3.1,2.4c0.8,1,1.4,2.2,1.9,3.5c0.4,1.3,0.6,2.8,0.6,4.3c0,0.2,0,0.4,0,0.6    c0,0.2,0,0.5-0.1,0.7H89.5c0.3,1.7,0.9,3,2,3.9c1.1,0.9,2.4,1.4,3.9,1.4c1.2,0,2.2-0.2,3.1-0.6c0.9-0.4,1.7-1,2.5-1.8l2.8,2.5    c-1,1.2-2.2,2.1-3.5,2.8C99,450.9,97.3,451.3,95.4,451.3 M100.1,439c-0.1-0.8-0.2-1.5-0.5-2.1c-0.3-0.7-0.6-1.2-1.1-1.7    c-0.4-0.5-1-0.9-1.6-1.2c-0.6-0.3-1.3-0.4-2.1-0.4c-1.5,0-2.7,0.5-3.6,1.5c-1,1-1.5,2.3-1.7,3.9H100.1z"/>
		<path class="st1" d="M109.6,430.1h4.8v4.7c0.7-1.6,1.6-2.8,2.8-3.8c1.2-0.9,2.7-1.4,4.5-1.3v5h-0.3c-1,0-2,0.2-2.9,0.5    c-0.9,0.3-1.6,0.8-2.2,1.5c-0.6,0.7-1.1,1.5-1.4,2.6c-0.3,1-0.5,2.2-0.5,3.6v7.9h-4.8V430.1z"/>
		<path class="st1" d="M125.8,430.1h4.8v3.5c0.8-1.1,1.7-2,2.8-2.8c1.1-0.7,2.5-1.1,4.2-1.1c1.2,0,2.4,0.2,3.6,0.7    c1.1,0.5,2.2,1.2,3.1,2.1c0.9,0.9,1.6,2,2.2,3.4c0.5,1.3,0.8,2.9,0.8,4.6v0.1c0,1.7-0.3,3.3-0.8,4.6c-0.5,1.3-1.3,2.5-2.1,3.4    c-0.9,0.9-1.9,1.6-3.1,2.1c-1.2,0.5-2.4,0.7-3.6,0.7c-1.7,0-3.1-0.4-4.2-1.1c-1.1-0.7-2-1.6-2.8-2.5v9.5h-4.8V430.1z M136.5,447.1    c0.8,0,1.6-0.2,2.3-0.5c0.7-0.3,1.3-0.8,1.9-1.3c0.5-0.6,1-1.3,1.3-2.1c0.3-0.8,0.5-1.7,0.5-2.8v-0.1c0-1-0.2-1.9-0.5-2.7    c-0.3-0.8-0.7-1.5-1.3-2.1c-0.5-0.6-1.2-1-1.9-1.3c-0.7-0.3-1.5-0.5-2.3-0.5c-0.8,0-1.6,0.2-2.3,0.5c-0.7,0.3-1.4,0.8-1.9,1.4    c-0.5,0.6-1,1.3-1.3,2.1c-0.3,0.8-0.5,1.7-0.5,2.7v0.1c0,1,0.2,1.9,0.5,2.7c0.3,0.8,0.8,1.5,1.3,2.1c0.5,0.6,1.2,1,1.9,1.3    C134.9,447,135.7,447.1,136.5,447.1"/>
		<rect x="151.7" y="445.5" class="st1" width="5.2" height="5.4"/>
		<path class="st1" d="M162.6,430.1h4.8v3.2c0.3-0.5,0.7-1,1.1-1.4c0.4-0.4,0.9-0.8,1.4-1.2c0.5-0.3,1.1-0.6,1.8-0.8    c0.6-0.2,1.4-0.3,2.2-0.3c2.3,0,4.2,0.7,5.4,2.2c1.3,1.4,1.9,3.4,1.9,5.8v13.2h-4.8v-11.7c0-1.6-0.4-2.9-1.1-3.7    c-0.8-0.9-1.8-1.3-3.2-1.3c-1.4,0-2.5,0.4-3.3,1.3c-0.9,0.9-1.3,2.2-1.3,3.8v11.7h-4.8V430.1z"/>
		<path class="st1" d="M196.1,457.2c-3.4,0-6.5-0.8-9.3-2.4l1.8-3.6c1.1,0.7,2.2,1.2,3.4,1.6c1.2,0.4,2.5,0.6,3.9,0.6    c2.1,0,3.7-0.5,4.9-1.6c1.1-1.1,1.7-2.7,1.7-4.8v-1.6c-0.9,1.1-1.9,2-3,2.7c-1.2,0.7-2.6,1.1-4.3,1.1c-1.2,0-2.4-0.2-3.5-0.7    c-1.1-0.4-2.1-1.1-3-1.9c-0.9-0.8-1.6-1.8-2.1-3c-0.5-1.2-0.8-2.6-0.8-4.1v-0.1c0-1.5,0.3-2.9,0.8-4.1c0.5-1.2,1.2-2.2,2.1-3.1    c0.9-0.8,1.9-1.5,3-1.9c1.1-0.4,2.3-0.7,3.5-0.7c1.8,0,3.2,0.3,4.3,1c1.1,0.7,2.1,1.5,2.9,2.5v-3.1h4.7v16.5    c0,3.5-0.9,6.1-2.6,7.8c-0.9,0.9-2.1,1.6-3.5,2.1C199.7,457,198,457.2,196.1,457.2 M196.5,445.2c0.8,0,1.6-0.1,2.3-0.4    c0.7-0.3,1.4-0.7,1.9-1.2c0.5-0.5,1-1.1,1.3-1.8c0.3-0.7,0.5-1.5,0.5-2.3v-0.1c0-0.9-0.2-1.6-0.5-2.3c-0.3-0.7-0.8-1.3-1.3-1.8    c-0.5-0.5-1.2-0.9-1.9-1.2c-0.7-0.3-1.5-0.4-2.3-0.4c-0.8,0-1.6,0.1-2.3,0.4c-0.7,0.3-1.3,0.7-1.9,1.2c-0.5,0.5-1,1.1-1.3,1.8    c-0.3,0.7-0.5,1.5-0.5,2.3v0.1c0,0.9,0.2,1.6,0.5,2.3c0.3,0.7,0.7,1.3,1.3,1.8c0.5,0.5,1.1,0.9,1.9,1.2    C194.9,445,195.7,445.2,196.5,445.2"/>
		<path class="st1" d="M223,451.3c-1.6,0-3-0.3-4.4-0.8c-1.3-0.6-2.5-1.3-3.5-2.3c-1-1-1.7-2.1-2.3-3.4c-0.5-1.3-0.8-2.7-0.8-4.2    v-0.1c0-1.5,0.3-2.9,0.8-4.2c0.6-1.3,1.3-2.5,2.3-3.4c1-1,2.1-1.8,3.5-2.3c1.3-0.6,2.8-0.9,4.4-0.9c1.6,0,3.1,0.3,4.4,0.8    c1.3,0.6,2.5,1.3,3.5,2.3c1,1,1.7,2.1,2.3,3.4c0.5,1.3,0.8,2.7,0.8,4.2v0.1c0,1.5-0.3,2.9-0.8,4.2c-0.6,1.3-1.3,2.5-2.3,3.4    c-1,1-2.2,1.8-3.5,2.3C226.1,451,224.6,451.3,223,451.3 M223.1,447.2c1,0,1.8-0.2,2.6-0.5c0.8-0.4,1.4-0.8,2-1.4    c0.5-0.6,1-1.3,1.2-2.1c0.3-0.8,0.4-1.6,0.4-2.5v-0.1c0-0.9-0.2-1.8-0.5-2.6c-0.3-0.8-0.7-1.5-1.3-2.1c-0.6-0.6-1.2-1.1-2-1.4    c-0.8-0.4-1.6-0.5-2.6-0.5s-1.8,0.2-2.6,0.5c-0.8,0.4-1.4,0.8-2,1.4c-0.5,0.6-1,1.3-1.2,2.1c-0.3,0.8-0.4,1.7-0.4,2.5v0.1    c0,0.9,0.2,1.8,0.5,2.6c0.3,0.8,0.7,1.5,1.3,2.1c0.6,0.6,1.2,1.1,2,1.4C221.4,447,222.2,447.2,223.1,447.2"/>
	</g>
</g>
</svg>