<svg id="Layer_1" data-name="Layer 1" xmlns="http://www.w3.org/2000/svg" viewBox="0 0 595.3 719.4"><defs><style>.cls-1{fill:#fff;}</style></defs><title>erp_White</title><path class="cls-1" d="M34.9,437v12.6H116c1.3-2.2,4.9-9.5,4.9-27.3a169.47,169.47,0,0,0-2.7-27.1s-29.5-46.6,5.1-86.9c29.5-34.4,74.5-13.8,74.5-13.8l50.6-6.2s35.9,13.5,57.7,54.8c3.1,8.6,3.3,13.3,10.9,4.9l12.6-14c5.1,35.9-17.5,31.5-17.5,31.5h0s2.7,9.8.4,29.7l5.3-5.8s8.4,8,.7,22.6c-1.6,3.8,3.1,9.1,8.9,3.8l17.1-19.1c2,5.3,5.8,40.1-25.3,52.8h62.1c-4.4-15.5-7.1-35-7.1-56.5a252.78,252.78,0,0,1,3.3-40.6c-.9-16.4-3.3-17.1-7.1-23.3-4.4-7.3-9.8-17.7-10.9-23.5-.9-6-6.4-10.9-6.4-10.9a118.45,118.45,0,0,1,6.4-20.6c7.1-17.3,21.3-22.6,27.5-25.3,2.9-1.1,2.9-3.3,1.3-9.3-1.1-3.6-2-4.2-3.1-4.2H385a1.68,1.68,0,0,1-1.3-.4.2.2,0,0,1-.2-.2h0a5.08,5.08,0,0,1-.9-1.3,6.77,6.77,0,0,1-.7-2.7c0-1.6.2-2.9,1.1-3.6a18.74,18.74,0,0,0,.2-2.7h0V224c0-10,7.6-18,16.6-18,9.3,0,16.6,8,16.6,18v.9a9.38,9.38,0,0,0,.2,2.2,5.16,5.16,0,0,1,1.1,3.6,5,5,0,0,1-.7,2.7c-.2.4-.7.9-.9,1.3h0l-.2.2a3.26,3.26,0,0,1-1.3.4h-.2c-.9.2-2,.9-3.1,4.2-1.8,6-1.6,8.2,1.3,9.3,1.5.9,3.1,1.6,4.4,2.4.2,0,.2.2.4.2.4.2.9.7,1.3.9.2.2.4.2.7.4,11.1,7.8,15.3,18.6,17.3,32.2a6.17,6.17,0,0,1,.2,1.8h-.2c-4.7.2-3.8,7.1-2.7,12,1.8,4.9,22.8,64.5,25.5,88,3.3,31.9-15.7,28.4-15.7,28.4v14.6c32.4,3.1,36.4-23.7,37.3-38.4.7-9.3,4-62.3,6.9-99.8a143.11,143.11,0,0,0,40.4,6.2,152.22,152.22,0,0,0,34.6-3.8c-33.1-2.9-60.3-16.4-72.1-34.4h-.2c.4-3.6.7-5.5,1.1-5.5C519,94.1,424.1,84.8,424.1,84.8L347.4,32.7s-23.9,2.4-37.2,33c0,0-32.6,21.1-80.1,5.3-1.8-.7-4-1.1-6-1.8a135.49,135.49,0,0,0-189.2,124h0v139S50.6,312,50.6,272.8c16,76.1.9,120-8.9,138.8.1.1-6.8,13.9-6.8,25.4m110.9-48.6c-1.8,5.1-11.8,27.5-3.8,51.9v9.1h19.3V399.5a85.68,85.68,0,0,1-15.5-11.1m88.9,25.8c-.7,2.2-6.2,22.9,6.2,35.5h35l-20.8-40.1-4,.9a146.83,146.83,0,0,1-16.4,3.7"/><polygon class="cls-1" points="170.8 638.8 68.8 638.8 68.8 597.8 167.3 597.8 167.3 565.8 68.8 565.8 68.8 524.2 170.8 524.2 170.8 490.9 34.9 490.9 34.9 672.7 170.8 672.7 170.8 638.8"/><path class="cls-1" d="M442,490.7c-28.6,0-57.2.2-85.6.2V672.5h34.2V523.3H442c43.7,0,43.9,64.3,0,64.3H415.8v31.5H442c89.2,0,88.8-128.4,0-128.4"/><path class="cls-1" d="M340,553c0-31.5-22.6-61.9-65.4-62.1-28.8,0-57.7-.2-86.5-.2V672.8h34.4V617.6L321,685.9l19.7-28.6-57.9-39.7c47.9-1.2,57.2-40,57.2-64.6m-34.1,2.6c0,14.6-9.3,32.8-31.1,32.8H222.5V522.7h52.1c21.5.1,31.3,18.3,31.3,32.9"/><path class="cls-1" d="M541.6,491.6H546V467.9h-5.1l-7.3,10.2-7.3-10.2h-5.1v23.7h4.4V474.3l7.5,10.4h.9l7.8-10.2v17.1Zm-35.5,0h4.4V471.9H518v-4H498.5v4H506l.1,19.7Z"/></svg>