<svg id="Layer_1" data-name="Layer 1" xmlns="http://www.w3.org/2000/svg" viewBox="0 0 491 595.28"><defs><style>.cls-1{fill:#121c41;}</style></defs><title>ERP Logo</title><path class="cls-1" d="M9.79,367.49v11.26H82.06c1.09-1.82,4.36-8.35,4.36-24.33a143.57,143.57,0,0,0-2.54-24s-26.15-41.4,4.72-77.35c26.15-30.5,66.45-12.35,66.45-12.35l45-5.45s32,12,51.2,48.66c2.91,7.63,2.91,12,9.8,4.36L272.33,276c4.72,32-15.61,28-15.61,28h0s2.54,8.72.36,26.51l4.72-5.08s7.63,7.26.73,20c-1.45,3.27,2.91,8,8,3.27l15.25-17.07c1.82,4.72,5.08,35.59-22.51,46.84h55.19c-4-13.8-6.17-31.23-6.17-50.47A215.09,215.09,0,0,1,315.18,292c-.73-14.52-2.91-15.25-6.17-20.7-4-6.54-8.72-15.61-9.8-21.06-.73-5.45-5.81-9.8-5.81-9.8a111.67,111.67,0,0,1,5.81-18.52c6.17-15.25,18.88-20,24.33-22.51,2.54-1.09,2.54-2.9,1.09-8.35-1.09-3.27-1.82-3.63-2.91-3.63h-.36a1.33,1.33,0,0,1-1.09-.36.36.36,0,0,1-.36-.36h0c-.36-.36-.73-.73-.73-1.09a5.25,5.25,0,0,1-.73-2.54,4.44,4.44,0,0,1,1.09-3.27,9.58,9.58,0,0,0,.36-2.54h0v-.36c0-8.72,6.54-16,14.89-16s14.89,7.26,14.89,16v.73c0,.36,0,1.45.36,1.82a4.44,4.44,0,0,1,1.09,3.27,6.73,6.73,0,0,1-.73,2.54c-.36.36-.73.73-.73,1.09h0l-.36.36a1.33,1.33,0,0,1-1.09.36h-.36c-.73.36-1.82.73-2.91,3.63-1.45,5.45-1.45,7.26,1.09,8.35a39.61,39.61,0,0,1,4,2.18.36.36,0,0,1,.36.36c.36.36.73.73,1.09.73.36.36.36.36.73.36,9.8,6.9,13.44,16.7,15.25,28.69a2.74,2.74,0,0,1,.36,1.45h-.36c-4,.36-3.27,6.17-2.54,10.53,1.45,4.36,20.33,57.37,22.51,78.43,2.91,28.32-14.16,25.42-14.16,25.42v13.07c28.69,2.91,32.32-21.06,33-34.13.73-8.35,3.63-55.56,6.17-88.6a126.36,126.36,0,0,0,35.95,5.45,138.76,138.76,0,0,0,30.87-3.27c-29.41-2.54-53.74-14.52-64.27-30.5h-.36c.36-3.27.73-5.08,1.09-5.08,24-142.34-60.28-150.7-60.28-150.7L287.95,8s-21.42,2.18-33,29.41c0,0-29,18.88-71.17,4.72a23.89,23.89,0,0,0-5.45-1.45,122.86,122.86,0,0,0-47.93-9.8A120.1,120.1,0,0,0,10.16,151.07h0V274.53s14.16-17.79,14.16-53c14.16,67.54.73,106.76-8,123.46-.36,0-6.54,12.35-6.54,22.51m98.77-43.21C107.11,329,98,348.61,105.3,370.4v8h17.07V334.45a64.57,64.57,0,0,1-13.8-10.17m79.16,22.88c-.73,1.82-5.45,20.33,5.45,31.59H224.4l-18.52-35.59-3.63.73a85.22,85.22,0,0,1-14.52,3.27"/><polygon class="cls-1" points="130.72 547.24 39.93 547.24 39.93 510.56 127.81 510.56 127.81 482.24 39.93 482.24 39.93 445.2 130.72 445.2 130.72 415.43 9.79 415.43 9.79 577.38 130.72 577.38 130.72 547.24"/><path class="cls-1" d="M372.19,415.43c-25.42,0-50.84.36-76.26.36V577.38h30.5V444.48h45.75c38.85,0,39.22,57.37,0,57.37H349v28h23.24c79.16-.36,78.8-114.38,0-114.38"/><path class="cls-1" d="M281.41,471c0-28-20-55.19-58.1-55.19-25.78,0-51.2-.36-77-.36v162h30.5v-49L264.35,589l17.43-25.42-51.2-35.22c42.49-1.09,50.84-35.59,50.84-57.37m-30.5,2.18c0,13.07-8.35,29-27.6,29H176.83V443.75h46.48c18.88.36,27.6,16.34,27.6,29.41"/><path class="cls-1" d="M460.8,416.15h4V395.09h-4.72l-6.54,9.08L447,395.09h-4.72v21.06h4V400.9l6.54,9.44h.73l6.9-9.08.36,14.89Zm-31.59,0h4V398.72h6.54v-3.63H422.3v3.63h6.54l.36,17.43Z"/></svg>