<?xml version="1.0" encoding="utf-8"?>
<!-- Generator: Adobe Illustrator 21.1.0, SVG Export Plug-In . SVG Version: 6.00 Build 0)  -->
<svg version="1.1" id="Layer_1" xmlns="http://www.w3.org/2000/svg" xmlns:xlink="http://www.w3.org/1999/xlink" x="0px" y="0px"
	 viewBox="0 0 856 328" style="enable-background:new 0 0 856 328;" xml:space="preserve">
<style type="text/css">
	.st0{fill:#121C41;}
</style>
<g>
	<g>
		<rect x="38.3" y="269.7" class="st0" width="512.1" height="2"/>
		<path class="st0" d="M125.5,120.1c-5.5,0.8-10.8,0.6-14.8-0.3c-0.1,0-0.3,0-0.4-0.1c-1.4-0.4-2.8-0.6-4.2-0.6
			c-0.6,0-1.2,0-1.7,0.1c-1.2,0.1-2.4,0.4-3.8,1c-0.2,0.1-0.3,0.1-0.5,0.2c-0.2,0.1-0.5,0.2-0.7,0.3c-0.4,0.2-0.8,0.4-1.3,0.8
			c-2.3,1.4-4.7,3.4-6.7,5.9c-3.6,4.6-8.4,19.2-16.6,16.8c7.2,3.1,9.7-3.1,13.3-5.9c-0.4,2.8-0.1,5.5,0.9,8
			c0,15.9-10.3,22.3-10.3,22.3l0,0c0,0,0,0-0.1,0c-0.2,0.3,1.5,1.7,3.6,3c2.2,1.4,4.1,2.1,4.4,1.8l0,0l0,0l1.5-4.7l8.5-10.5l0.5-0.6
			c1-0.3,1.9-0.8,3.1-1.4c1.3-0.7,2.4-1.7,3.4-2.7c-1,1.7-2.3,3.3-4.1,4.8c5.2,11.2,3.8,14.3,3.8,14.3l0,0l0,0
			c0,0.4,1.7,0.6,3.7,0.6c2,0,3.7-0.3,3.7-0.6l0,0v-4.6l-4.8-13.8c5.5,0.7,10.9,0.1,15.9-1.5c1.2,10.2-2,19.2-2.2,19.7
			c0,0,0,0,0,0.1c0,0.4,2,0.6,4.5,0.6c2.4,0,4.5-0.3,4.5-0.6l0,0v-3.9l2.2-7.6c1.9,2.6,3.7,5.3,5,8.6l0.7,3.5l0,0l0,0
			c0.1,0.3,2,0,4.1-0.7c2.1-0.7,3.8-1.6,3.7-2l0,0l0,0l-3-4.2l-7-17.9v-0.1c-0.1-0.3-0.2-0.8-0.2-1.1c-0.1-0.4-0.1-0.7-0.1-1.1
			c0-0.3,0-0.5,0-0.9c0-0.2,0-0.3,0-0.5c0-0.3,0.1-0.5,0.1-0.7c0.2-0.8,0.5-1.5,1.2-2.1c0.8-0.7,1.8-1.1,3.1-1.2l-13.3-4.2h-0.1
			C122.8,130.9,123.2,125,125.5,120.1 M267.3,161.8l3.9-10.1c0.4,1,0.9,2,1.3,3.1L267.3,161.8z M333.6,134.6
			c-6.6,0.1-13.2-2.2-18.3-7c-0.6-0.6-1.3-1.3-1.9-1.9l-0.2-0.6c0.9-4.7,0.6-12.2-1.3-20.5c-2.6-11-7-19.7-10.7-21.7l-0.1-0.3
			l-29.4-10.5l0,0l0,0h-0.1v0.1c-8.7,8.6-22.7,13.7-38,12.6c-3.3-0.2-6.5-0.7-9.4-1.4c-1.1-0.2-1.9-0.3-2.8-0.4
			c-0.6-0.1-1.4-0.1-2-0.1c-7.7,0-14.6,3.5-19.2,9.1c-3,3.5-5.6,8.1-7.4,13.4c-2.9,8.3-2.5,29.8-12.9,34.1c0.1-1.7-0.6-3.5-2.2-4.5
			c-0.1-0.1-0.5-0.3-0.6-0.3c-0.4-0.1-0.4-0.2-1.1-0.3c-0.4,0-2.3-0.4-4,1.8c0,0-4.1,3.9-5.8,4.9c-2.7,1.5-4.9,1.8-7.6,1.2
			c-3.1-1.6-1.9-4-3.6-11.4c-1.9-8.1-5.4-14.1-7.9-13.6c-0.4,0.1-0.8,0.4-1.3,0.8l-14.6-5.8c-0.6,0.4-1.4,1.4-2.1,2.5
			c0,0,0-0.1,0.1-0.1c-0.3,0.4-0.5,0.9-0.7,1.3c-0.3,0.6-0.7,1.4-1.1,2.1c-2.1,5-2.3,10.8,0.1,16.1l15.9,7l3.4,1.5
			c1.8,2.5,5.3,5.6,12.6,5.5c0.6,0,1.2-0.1,1.8-0.2c2.8-0.4,5.8-1.5,8.8-4.2c1.7-1.5,3.5-3.8,4-4.7c0.2-0.4,0.8-0.7,1.2-1
			c0.4-0.1,0.6-0.1,1.1,0.1c0.1,0.1,0.2,0.1,0.3,0.1c0.3,0.2,0.5,0.4,0.6,0.7l0,0l0,0c0.1,0.2,0.1,0.5,0.1,0.7c-0.2,0-0.3,0-0.5,0.1
			c0.2,0,0.3,0,0.5,0c0.1,1.3-0.8,1.9-1.3,2l0,0l0,0c-0.1,0-0.2,0-0.3,0l0,0l0,0l0,0l-0.1-0.1l0,0c-0.1-0.1-0.3-0.2-0.5-0.2
			c-0.4,0-0.7,0.4-0.6,0.7c0.1,0.3,0.3,0.5,0.6,0.7c0.4,0.2,1.2,0.3,2.3-0.1c1.2-0.4,1.6-1.1,2-1.6c0.3-0.4,0.5-0.9,0.6-1.6
			c11-1.3,10.4-13.6,15.7-18.7c0.6,2.3,1.5,4.6,2.6,6.6c0.6,3.3,1.3,7.4,1.4,12c-0.4,23.4-5.2,31.8-5.2,31.9l0,0
			c0,0.6,3.4,1.2,7.6,1.2s7.6-0.5,7.6-1.2l0.4-8.7l4.9-13l0,0l0.6-1.7c2.6-0.6,5.4-1.7,8.1-3.3c2.1-1.3,4-2.8,5.6-4.2
			c-1.6,2.8-3.8,5.4-6.8,7.8c6.6,15.2,5.7,23.2,5.7,23.2c0,0.6,2.7,1.2,6.1,1.2c3.4,0,6-0.5,6-1.2l-0.2-7.5l-7.4-23.3
			c9.2-0.3,17.9-2.8,25.6-6.8c3.7,19.1-5,37.7-5,37.7l0,0c0,0.6,3.3,1.2,7.3,1.2c4,0,7.3-0.5,7.3-1.2l-0.3-3.1
			c0.7,0.2,1.6,0.5,2.4,0.7c3.6,1,6.7,1.3,6.8,0.6v-0.1l9-16.3l-6.6-21c2.7-3.3,4.6-8.2,5.4-13.8l-21.5-6.5h-0.1
			c-4.9-12-2.1-25.6,6.4-34.7c-6.4,9-8,21-3.3,31.7l28.8,12.3h0.1v-7.4l5.9,1.2c1.2,2.8,2.8,5.3,4.8,7.7c-1.2,3.4-2.3,10.2,0.6,20.8
			c1.1,3.6,3,6.2,3.9,7.5c0.5,0.5,0.8,1.2,0.8,2c0,0.7-0.3,1.4-0.8,1.9c-0.1,0.1-0.3,0.2-0.4,0.3c-0.4,0.3-1,0.5-1.6,0.5
			c0,0,0,0-0.1,0l0,0c-3.1-0.1-3.8-2.2-3.7-3.4l0,0l0,0c0-0.2,0.1-0.4,0.2-0.4l0,0l0,0l0,0c0.1,0,0.1-0.1,0.2-0.1l0,0
			c0.3-0.1,0.5-0.4,0.6-0.7c0.2-0.6-0.2-1.4-0.9-1.4c-0.6,0-1.1,0.2-1.5,0.6c-0.5,0.5-1.2,1.6-1.2,3.6c0,2,0.6,3.1,1.4,4
			c2.2,3.2,7.6,4.1,11,1.4c0.1-0.1,0.8-0.6,0.9-0.8c0.4-0.5,0.5-0.5,1-1.5c0.2-0.6,1.9-3.3-0.5-7.2c0,0-5.1-5.9-3-20.8
			C318.9,134,326.4,135.6,333.6,134.6 M515.3,81.4c-8.4,0-16-3.3-21.8-8.6c11.4-0.8,20.4-11.9,20.4-23.4c0-0.6,0-1.2-0.1-1.8
			c0-0.3,0.1-0.8,0.1-1.1c0-9.3-7.6-17-17-17c-1.9,0-3.8,0.3-5.5,1c-5.3,1.6-8.7,5.8-10.7,5.9c-1.1,0.1-1.4-0.3-1.7-0.6l0,0
			c-0.4-0.5-1.1-0.8-1.8-0.8c-1.4,0-2.4,1.1-2.4,2.4c0,0.7,0.3,1.4,0.8,1.8l0,0c0.3,0.3,2.5,2.6,9.8-0.7c4-1.9,8.1-1.4,10.2-0.7
			c1.2,0.4,2.2,1.1,3.2,1.9c0.1,0,0.1,0.1,0.2,0.1c0.2,0.2,0.4,0.4,0.6,0.7c0.1,0.1,0.2,0.2,0.3,0.3c0.1,0.2,0.3,0.4,0.4,0.7
			c0.1,0.2,0.2,0.4,0.3,0.5c0.1,0.2,0.2,0.4,0.3,0.6c0.1,0.3,0.2,0.5,0.2,0.9c0,0.2,0.1,0.3,0.1,0.5c0.1,0.4,0.1,1,0.1,1.5
			c0,0.5-0.1,1.1-0.1,1.5c0,0.2-0.1,0.3-0.1,0.4c-0.1,0.3-0.2,0.6-0.3,1c-0.1,0.2-0.1,0.3-0.2,0.5c-0.1,0.3-0.2,0.5-0.4,0.7
			c-0.1,0.2-0.2,0.3-0.3,0.5c-0.2,0.2-0.3,0.4-0.5,0.6c-0.1,0.1-0.2,0.3-0.4,0.4c-0.2,0.2-0.4,0.4-0.6,0.5c-0.1,0.1-0.3,0.2-0.4,0.3
			c-0.2,0.2-0.5,0.3-0.8,0.5c-0.1,0.1-0.3,0.2-0.4,0.2c-1,0.4-1.9,0.6-3,0.7v0.1c-1.1,0-3.2-0.3-4.8-0.6
			c-1.7-0.3-38.3-10.4-41.1-11.1v-0.1l0,0c-0.1,0-0.1,0-0.1,0V42c-12.5,13.9-33.2,23-56.7,23c-5,0-9.9-0.4-14.5-1.2
			c-2.2-0.4-4-0.4-5.6-0.2c-8.9,0.3-16.9,4.6-22.2,11c-3.6,4.2-6.9,9.9-9.1,16.3c-3.8,10.9-4.4,28.2-1,44.1
			c0.1-3.1,1.1-21.5,3.9-26.2c0.6,3.1,1.7,5.9,3.1,8.5c0.2,2,0.4,4.5,0.5,7.4c-2.2,20.3-14.4,46.9-14.4,46.9l0,0
			c0,0.7,4.1,1.4,9.2,1.4c5.1,0,9.2-0.6,9.2-1.4c0,0,0,0,0-0.1l0.4-10.6c0,0,7.5-16.1,13.5-26.7c0.1,0,0.3-0.1,0.4-0.1l0,0
			c3.3-0.7,6.8-2.1,10.2-4.1c2.7-1.5,4.9-3.3,6.9-5.2c-2.8,4.7-7.4,9.1-13.3,12.6c-1.1,0.6-2.2,1.3-3.4,1.8
			c1.9,23.6-0.6,32.4-0.6,32.4c0,0.7,3.3,1.4,7.3,1.4c4,0,7.3-0.6,7.3-1.4c0,0-0.4-7.5-1.2-10.6c0,0,3-16.3,8.9-35.7
			c9.6-0.4,18.7-2.9,26.8-6.7c5.8,24.4-6.6,53.1-6.6,53.1l0,0c0,0.7,4,1.4,8.9,1.4c4.9,0,8.9-0.6,8.9-1.4l-1.2-10.6l12.2-31.5
			c6.4,7.1,13.4,17,18.7,30.3l-0.4,11.8l0,0c0,0.7,3.7,1.4,8.3,1.4c4.6,0,8.3-0.6,8.3-1.4l0,0v-10.6l-17.1-53.9
			c0.9-2.8,1.5-5.7,1.7-8.9c0.1-1.7,0.2-3.4,0.1-5.1L424.5,84l0.2-1c1.4-15.6,11.8-28.5,26-33.7c-11.7,6.1-19.9,18-21.1,31.8
			l33.6,14.4V84.7c0.8,0.1,1.7,0.1,2.5,0.1c6,0,11.8-1.4,16.8-3.9c-2.6-3.2-4.5-6.7-5.9-10.5h0.1l0,0c6.9,9.9,18.4,16.2,31.2,16.2
			c11.9,0,22.6-5.5,29.6-14C531.6,78,523.8,81.4,515.3,81.4"/>
		<path class="st0" d="M297.3,235.6c0,3.9-2.9,7.1-7.1,7.1c-4.2,0-7.1-3.2-7.1-7.1c0-3.9,2.7-7.1,7.1-7.1
			C294.6,228.5,297.3,231.6,297.3,235.6 M303.5,235.6c0-7.3-5.1-13-12.8-13c-2.9,0-6.2,1.2-8.2,4L282,223h-5.8v39.7h6.1v-17.6
			c1.8,2.8,5.7,3.5,8.3,3.5C298.8,248.7,303.5,242.9,303.5,235.6"/>
		<path class="st0" d="M504.3,293.8h-8.2v-3.3h8V288h-8v-3.4h8.2v-2.7h-10.9v14.6h10.9V293.8z M486.7,284.3
			c-1.1-2.2-3.5-2.9-5.7-2.9c-2.7,0-5.6,1.3-5.6,4.2c0,3.3,2.8,4,5.7,4.5c1.9,0.2,3.4,0.7,3.4,2.1c0,1.6-1.6,2.2-3.4,2.2
			c-1.8,0-3.5-0.7-4.1-2.3l-2.3,1.2c1.1,2.7,3.4,3.6,6.4,3.6c3.3,0,6.1-1.4,6.1-4.7c0-3.5-2.9-4.2-5.8-4.7c-1.8-0.2-3.3-0.5-3.3-1.8
			c0-1.1,1-1.9,3.1-1.9c1.6,0,3,0.8,3.5,1.6L486.7,284.3z M461.4,284.2c3.4,0,4.8,2.8,4.8,5.2c0,2.4-1.4,5-4.8,5
			c-3.4,0-4.8-2.5-4.8-5C456.5,286.9,458,284.2,461.4,284.2 M461.4,281.6c-5.1,0-7.5,3.8-7.5,7.7c0,3.8,2.3,7.5,7.5,7.5
			c5.1,0,7.4-3.8,7.5-7.5C468.9,285.4,466.4,281.6,461.4,281.6 M443.1,281.9c-2.3,0-4.6,0-6.9,0v14.6h2.8v-4.3h4.1
			C450.2,292.2,450.2,281.9,443.1,281.9 M439,284.5h4.1c3.5,0,3.5,5.2,0,5.2H439V284.5z M425,284.5c1.7,0,2.6,1.2,2.6,2.3
			c0,1.2-0.7,2.3-2.6,2.3h-4.2v-4.7H425z M430.9,296.4l-4.5-5c2.8-0.5,3.7-2.6,3.7-4.6c0-2.6-1.8-4.9-5.3-4.9c-2.3,0-4.7,0-6.9,0
			v14.6h2.8v-5h2.6l4.2,4.9h3.3V296.4z M408.4,281.9v8.4c0,2.5-1.3,4-3.6,4c-2.3,0-3.8-1.4-3.8-4v-8.4h-2.8v8.4c0,4.3,3,6.6,6.5,6.6
			c3.7,0,6.4-2.2,6.4-6.6v-8.4H408.4z M386.9,281.9c-2.3,0-4.6,0-6.9,0v14.6h2.8v-4.3h4.1C394.1,292.2,394,281.9,386.9,281.9
			 M382.7,284.5h4.1c3.5,0,3.5,5.2,0,5.2h-4.1V284.5z M365.3,293.8h-8.2v-3.3h8V288h-8v-3.4h8.2v-2.7h-10.9v14.6h10.9V293.8z
			 M341.2,296.5h2.8v-12.1h4.7v-2.5h-12v2.5h4.7v12.1H341.2z M329,291.2h-5.4l2.8-6.3L329,291.2z M331.4,296.5h3l-6.6-14.6h-3
			l-6.6,14.6h3l1.3-2.8h7.6L331.4,296.5z M308.4,284.5c1.7,0,2.6,1.2,2.6,2.3c0,1.2-0.7,2.3-2.6,2.3h-4.2v-4.7H308.4z M314.5,296.4
			l-4.5-5c2.8-0.5,3.7-2.6,3.7-4.6c0-2.6-1.8-4.9-5.3-4.9c-2.3,0-4.7,0-6.9,0v14.6h2.8v-5h2.7l4.2,4.9h3.3V296.4z M287.9,284.2
			c3.4,0,4.8,2.8,4.8,5.2c0,2.4-1.4,5-4.8,5c-3.4,0-4.8-2.5-4.8-5C283,286.9,284.4,284.2,287.9,284.2 M287.9,281.6
			c-5.1,0-7.5,3.8-7.5,7.7c0,3.8,2.3,7.5,7.5,7.5c5.1,0,7.4-3.8,7.5-7.5C295.4,285.4,292.8,281.6,287.9,281.6 M269.6,281.9
			c-2.3,0-4.6,0-6.9,0v14.6h2.8v-4.3h4.1C276.7,292.2,276.7,281.9,269.6,281.9 M265.5,284.5h4.1c3.5,0,3.5,5.2,0,5.2h-4.1V284.5z
			 M251.3,284.5c1.7,0,2.5,1.2,2.5,2.3c0,1.2-0.8,2.3-2.5,2.3h-4.2v-4.7H251.3z M257.4,296.4l-4.5-5c2.8-0.5,3.7-2.6,3.7-4.6
			c0-2.6-1.8-4.9-5.3-4.9c-2.3,0-4.7,0-6.9,0v14.6h2.8v-5h2.6l4.2,4.9h3.3V296.4z M230.8,284.2c3.4,0,4.8,2.8,4.8,5.2
			c0,2.4-1.4,5-4.8,5c-3.4,0-4.8-2.5-4.8-5C225.9,286.9,227.3,284.2,230.8,284.2 M230.8,281.6c-5.1,0-7.5,3.8-7.5,7.7
			c0,3.8,2.3,7.5,7.5,7.5c5.1,0,7.4-3.8,7.5-7.5C238.3,285.4,235.7,281.6,230.8,281.6 M216.2,292.8c-1,1-2.4,1.5-3.7,1.5
			c-3.6,0-5-2.6-5-5c0-2.4,1.5-5.1,5-5.1c1.3,0,2.5,0.4,3.5,1.4l1.8-1.8c-1.5-1.5-3.4-2.2-5.4-2.2c-5.3,0-7.8,3.9-7.8,7.7
			c0,3.8,2.3,7.5,7.8,7.5c2.1,0,4-0.6,5.5-2.1L216.2,292.8z M180.6,284.5h3c3.2,0,4.5,2.2,4.6,4.6c0.1,2.3-1.3,4.8-4.6,4.8h-3V284.5
			z M183.5,281.9h-5.7v14.6h5.7c5.1,0,7.3-3.7,7.3-7.4C190.9,285.4,188.6,281.9,183.5,281.9 M168.6,291l-7.1-9h-2.2v14.6h2.8v-9.9
			l7.6,9.9h1.7v-14.6h-2.8V291z M145.3,284.2c3.4,0,4.8,2.8,4.8,5.2c0,2.4-1.4,5-4.8,5c-3.4,0-4.8-2.5-4.8-5
			C140.5,286.9,141.8,284.2,145.3,284.2 M145.3,281.6c-5.1,0-7.5,3.8-7.5,7.7c0,3.8,2.3,7.5,7.5,7.5c5.1,0,7.4-3.8,7.5-7.5
			C152.9,285.4,150.3,281.6,145.3,281.6 M122.1,281.9h-3.3v0.1l5.6,8.5v6h2.8v-6l5.8-8.5v-0.1h-3.3l-3.9,6.1L122.1,281.9z
			 M113,293.8h-8.2v-3.3h7.9V288h-7.9v-3.4h8.2v-2.7H102v14.6H113V293.8z M90.5,281.9h-6.9v14.6h6.9c3.1,0,5.5-1.1,5.5-4.3
			c0-1-0.6-2.8-2.3-3.3c1.4-0.6,1.9-1.7,1.9-2.9C95.5,283.2,93.3,281.9,90.5,281.9 M86.2,284.4h4.2c1.8,0,2.3,1.2,2.3,1.8
			c0,0.8-0.5,1.6-2.3,1.6h-4.2V284.4z M86.2,290.2h4.2c1.2,0,2.8,0.6,2.8,2c0,1.4-1.6,1.8-2.8,1.8h-4.2V290.2z"/>
		<path class="st0" d="M220.6,232.6h-13.5c1-3.3,3.6-4.9,7-4.9C217.7,227.8,220.3,229.4,220.6,232.6 M213.9,222.3
			c-8.2,0-13.3,5.5-13.3,13c0,8.1,5.1,13.4,13.8,13.4c3.8,0,8.2-1.3,10.7-4l-3.9-3.9c-1.4,1.5-4.5,2.3-6.7,2.3c-4.4,0-7-2.2-7.4-5.3
			h19.5C227.6,227.5,222.3,222.3,213.9,222.3"/>
		<rect x="232.6" y="212.6" class="st0" width="6.1" height="35.4"/>
		<path class="st0" d="M264.3,232.6h-13.5c1-3.3,3.6-4.9,7-4.9C261.4,227.8,263.9,229.4,264.3,232.6 M257.6,222.3
			c-8.2,0-13.3,5.5-13.3,13c0,8.1,5.1,13.4,13.8,13.4c3.8,0,8.2-1.3,10.7-4l-3.9-3.9c-1.4,1.5-4.5,2.3-6.7,2.3c-4.4,0-7-2.2-7.4-5.3
			h19.5C271.2,227.5,266,222.3,257.6,222.3"/>
		<path class="st0" d="M309.3,212.5v35.6h6.2v-12.8c0-3.7,2.6-6.9,6.2-6.9c3.3,0,5.7,1.9,5.7,6.5v13.3h6.2v-13.2
			c0-7.3-3.2-12.2-10.3-12.2c-2.9,0-5.6,0.8-7.9,3.7v-13.9H309.3z"/>
		<path class="st0" d="M352.3,243.1c-4.1,0-7.4-2.9-7.4-7.6c0-4.8,3.3-7.5,7.4-7.5C362,227.9,362,243.1,352.3,243.1 M365.9,248.1
			v-25h-5.9l-0.2,3.5c-1.4-2.4-4.7-4-8-4c-7.3,0-13,4.5-13,13c0,8.8,5.5,13.4,12.8,13.3c2.8,0,6.7-1.5,8.2-4.5l0.3,3.6h5.8V248.1z"
			/>
		<path class="st0" d="M396.9,248.1v-13.2c0-7.9-4.7-12.3-10.6-12.3c-3.2,0-5.7,1.3-8.2,3.7l-0.4-3.4h-5.5v25.2h6.2v-12.8
			c0-3.8,2.6-7,6.4-7c3.9,0,6.1,2.9,6.1,6.7v13.2H396.9z"/>
		<path class="st0" d="M405,216.7v6.5h-4.7v5.3h4.7v10.8c0,6.3,3.5,9.3,9,9.1c1.9,0,3.4-0.3,5.1-1.1l-1.7-5.3c-1,0.4-2,0.7-3,0.7
			c-1.9,0-3.3-1.2-3.3-3.5v-10.8h7v-5.3h-6.9V216L405,216.7z"/>
		<path class="st0" d="M189.7,235.6c0,3.9-2.9,7.1-7.1,7.1c-4.2,0-7.1-3.2-7.1-7.1c0-3.9,2.6-7.1,7.1-7.1
			C187,228.5,189.7,231.6,189.7,235.6 M196,235.6c0-7.3-5.1-13-12.8-13c-2.9,0-6.2,1.2-8.2,4l-0.4-3.5h-5.7v39.7h6.2v-17.6
			c1.8,2.8,5.7,3.5,8.3,3.5C191.3,248.7,196,242.9,196,235.6"/>
		<path class="st0" d="M516,248.1v-13.4c0-3.3,2.1-6.1,5.4-6.1c3.4,0,4.7,2.8,4.7,6v13.5h6.2v-13.5c0-7.5-3.5-11.9-10.6-11.9
			c-3.3,0-6.2,1.1-8.4,4.6c-1.4-3.5-4.5-4.7-7.4-4.7c-2.3,0-5.3,1-6.6,3.5l-0.4-3.1h-5.7v25h6.2v-13.4c0-3.3,2-6.3,5.3-6.3
			c3.4,0,5.1,3,5.1,6.3v13.4H516z M474.6,228.1c4.1,0,6.8,3.6,6.8,7.4c0,3.8-2.3,7.3-6.8,7.3c-4.6,0-6.8-3.5-6.8-7.3
			C467.8,231.8,470.2,228.1,474.6,228.1 M474.5,222.5c-8,0-12.9,5.8-12.9,13c0,7.2,4.9,13.1,12.9,13.1c8.2,0,13.1-5.8,13.1-13.1
			C487.7,228.5,482.5,222.5,474.5,222.5 M454.2,240.8c-1.5,1.5-3.5,2.1-5.5,2.1c-3.8,0-7.1-2.5-7.1-7.3c0-4.3,3.1-7.4,7.2-7.4
			c1.7,0,3.5,0.6,5,2l3.9-4.1c-2.8-2.7-5.5-3.7-9-3.7c-7.2,0-13.3,4.3-13.3,13.3c0,8.9,6,13.3,13.3,13.3c3.7,0,6.8-1.2,9.7-3.9
			L454.2,240.8z M423.8,244.9c0,4.8,7.3,4.8,7.3,0C431.1,240,423.8,240,423.8,244.9"/>
		<path class="st0" d="M83.4,223v25h6.2v-13.2c0-4.7,3-6.4,6.3-6.4c2,0,3.2,0.5,4.5,1.6l2.8-5.4c-1.4-1.4-3.8-2.3-6.5-2.3
			c-2.5,0-5.1,0.4-7,3.5l-0.4-2.9H83.4z"/>
		<path class="st0" d="M125.3,235.6c0,3.8-2.3,7.3-6.8,7.3c-4.6,0-6.8-3.5-6.8-7.3c0-3.7,2.3-7.4,6.8-7.4
			C122.6,228.1,125.3,231.8,125.3,235.6 M131.5,235.6c0-7.1-5.1-13-13.1-13c-8,0-12.9,5.8-12.9,13c0,7.2,4.9,13.1,12.9,13.1
			C126.7,248.6,131.5,242.8,131.5,235.6"/>
		<path class="st0" d="M137.3,223v13.2c0,7.7,4.3,12.3,10.4,12.3c3.5,0,5.8-1.2,8.5-3.7l0.4,3.4h5.5v-25h-6.1V236c0,3.8-2.5,7-6.4,7
			c-3.9,0-6-2.9-6-6.7v-13.1h-6.3V223z"/>
		<path class="st0" d="M71.2,235.6c0,3.9-2.9,7.1-7.1,7.1c-4.2,0-7.1-3.2-7.1-7.1c0-3.9,2.7-7.1,7.1-7.1
			C68.5,228.5,71.2,231.6,71.2,235.6 M77.9,251.8V223h-5.8l-0.4,3.5c-1.9-2.8-5.3-4-8.2-4c-7.7,0-12.8,5.7-12.8,13
			c0,7.3,4.7,13.1,12.6,13.1c2.7,0,6.6-0.8,8.3-3.5v5.7c-0.1,3.6-3.1,6.4-7.3,6.4c-3.8,0-6.8-2.4-7.3-5.4h-6.1
			c0.5,6.7,6.1,10.9,13.6,10.9C72.2,262.7,77.9,257.8,77.9,251.8L77.9,251.8z"/>
		<path class="st0" d="M548.7,216.9h1.7v-9h-1.9l-2.9,3.9l-2.9-3.9h-2v9h1.7v-6.6l2.9,3.9h0.3l3-3.9v6.6H548.7z M535.2,216.9h1.7
			v-7.5h2.9v-1.6h-7.4v1.6h2.9V216.9L535.2,216.9z"/>
	</g>
	<g>
		<polygon class="st0" points="683.6,233.9 648.7,233.9 648.7,219.9 682.4,219.9 682.4,208.9 648.7,208.9 648.7,194.6 683.6,194.6 
			683.6,183.3 637.1,183.3 637.1,245.5 683.6,245.5 		"/>
		<path class="st0" d="M776.4,183.2c-9.8,0-19.5,0.1-29.3,0.1v62.2h11.7v-51.1h0v0h17.6c14.9,0,15,22,0,22h-9v10.8h9
			C806.9,227.2,806.8,183.2,776.4,183.2"/>
		<path class="st0" d="M729.8,205.4c0,5-3.2,11.2-10.7,11.2h-17.9v-22.4h17.9C726.5,194.2,729.8,200.4,729.8,205.4 M741.5,204.5
			c0-10.8-7.7-21.2-22.4-21.2c-9.9,0-19.7-0.1-29.6-0.1v62.3h11.7v-18.9l33.7,23.4l6.8-9.8L722,226.6
			C738.4,226.2,741.5,212.9,741.5,204.5"/>
		<polygon class="st0" points="798.4,176.7 795.8,176.7 795.8,175.4 802.5,175.4 802.5,176.7 799.9,176.7 799.9,183.5 798.4,183.5 
					"/>
		<polygon class="st0" points="810.5,177.6 807.9,181.1 807.6,181.1 805,177.6 805,183.5 803.4,183.5 803.4,175.4 805.2,175.4 
			807.7,178.9 810.3,175.4 812,175.4 812,183.5 810.5,183.5 		"/>
		<path class="st0" d="M705.5,157c-0.2,0.8-2.1,7.8,2.2,12.1h12l-7.1-13.7l-1.4,0.3C709.4,156.3,707.4,156.7,705.5,157 M675,148.2
			c-0.6,1.7-4,9.4-1.3,17.8v3.1h6.6V152C678.4,150.9,676.7,149.6,675,148.2 M637.1,164.8v4.3h24.5h3.2c0.4-0.7,1.7-3.2,1.7-9.3
			c0-4.4-0.9-9.2-0.9-9.2s-10.1-16,1.8-29.7c10.1-11.8,25.5-4.7,25.5-4.7l17.3-2.1c0,0,12.3,4.6,19.7,18.7c1,3,1.1,4.6,3.7,1.7
			l4.3-4.8c1.7,12.3-6,10.8-6,10.8h0c0,0,0.9,3.3,0.2,10.2l1.8-2c0,0,2.9,2.7,0.2,7.7c-0.5,1.3,1.1,3.1,3,1.3l5.9-6.6
			c0.7,1.8,2,13.8-8.7,18.1h21.2c-1.5-5.3-2.4-12-2.4-19.4c0-5,0.4-9.7,1.2-13.9c-0.3-5.6-1.1-5.8-2.4-8c-1.5-2.5-3.4-6.1-3.7-8.1
			c-0.3-2-2.2-3.7-2.2-3.7s0.5-2.9,2.2-7.1c2.4-5.9,7.3-7.7,9.4-8.6c1-0.4,1-1.2,0.4-3.2c-0.3-1.2-0.7-1.4-1.1-1.5c0,0-0.1,0-0.1,0
			c-0.2,0-0.3,0-0.4-0.1c0,0-0.1,0-0.1-0.1c0,0,0,0,0,0c0,0,0,0,0,0c0,0,0,0,0,0c-0.1-0.1-0.2-0.3-0.3-0.4c-0.2-0.3-0.3-0.6-0.2-0.9
			c0-0.5,0.1-1,0.4-1.2c0.1-0.4,0.1-0.9,0.1-0.9h0c0-0.1,0-0.1,0-0.2c0-3.4,2.6-6.2,5.7-6.2c3.2,0,5.7,2.8,5.7,6.2c0,0,0,0.1,0,0.3
			c0,0.2,0,0.5,0.1,0.8c0.2,0.2,0.4,0.7,0.3,1.2c0,0.3-0.1,0.6-0.2,0.9c-0.1,0.2-0.2,0.3-0.3,0.4c0,0,0,0,0,0c0,0,0,0,0,0
			c0,0,0,0,0,0c0,0-0.1,0-0.1,0.1c-0.1,0.1-0.3,0.1-0.4,0.1c0,0-0.1,0-0.1,0c-0.3,0.1-0.7,0.3-1,1.5c-0.6,2-0.5,2.8,0.4,3.2
			c0.6,0.3,1.1,0.5,1.5,0.8c0.1,0,0.1,0.1,0.1,0.1c0.2,0.1,0.3,0.2,0.5,0.3c0.1,0.1,0.1,0.1,0.2,0.1c3.8,2.7,5.2,6.4,5.9,11
			c0.1,0.2,0.1,0.5,0.1,0.6h0c0,0,0,0,0,0c0,0,0,0,0,0c-1.6,0.1-1.3,2.4-0.9,4.1c0.6,1.6,7.8,22.1,8.7,30.1
			c1.2,10.9-5.4,9.8-5.4,9.8v5c11.1,1.1,12.4-8.1,12.8-13.1c0.2-3.2,1.4-21.4,2.4-34.2c4.2,1.3,8.9,2,13.8,2.1
			c4.2,0,8.2-0.4,11.9-1.3c-11.3-1-20.6-5.6-24.7-11.8h0c0.1-1.2,0.3-1.9,0.4-1.9c9.2-54.8-23.2-58-23.2-58L744,26.4
			c0,0-8.2,0.9-12.8,11.3c0,0-11.2,7.3-27.4,1.9c-0.7-0.2-1.3-0.4-2.1-0.6c-5.7-2.5-11.9-3.8-18.4-3.8c-25.5,0-46.3,20.7-46.3,46.2
			v0V129c0,0,5.4-6.9,5.4-20.3c5.5,26.1,0.3,41.1-3,47.5C639.4,156.2,637.1,160.9,637.1,164.8"/>
	</g>
	<g>
		<path class="st0" d="M666.9,296.6c-1.2,0-2.4-0.2-3.4-0.7c-1.1-0.4-2-1.1-2.8-1.8c-0.8-0.7-1.4-1.7-1.9-2.8
			c-0.4-1.1-0.7-2.3-0.7-3.6v-0.1c0-1.2,0.2-2.4,0.6-3.4c0.4-1.1,1-2.1,1.7-2.8c0.7-0.8,1.6-1.5,2.6-1.9c1-0.5,2.1-0.7,3.4-0.7
			c1.3,0,2.5,0.2,3.5,0.7s1.9,1.1,2.5,2s1.1,1.8,1.6,2.9c0.3,1.1,0.5,2.3,0.5,3.5c0,0.2,0,0.3,0,0.5c0,0.2,0,0.4-0.1,0.6h-12.4
			c0.2,1.4,0.7,2.5,1.6,3.2c0.9,0.7,2,1.1,3.2,1.1c1,0,1.8-0.2,2.5-0.5c0.7-0.3,1.4-0.8,2.1-1.5l2.3,2.1c-0.8,1-1.8,1.7-2.9,2.3
			C669.9,296.3,668.5,296.6,666.9,296.6 M670.8,286.5c-0.1-0.7-0.2-1.2-0.4-1.7c-0.2-0.6-0.5-1-0.9-1.4c-0.3-0.4-0.8-0.7-1.3-1
			c-0.5-0.2-1.1-0.3-1.7-0.3c-1.2,0-2.2,0.4-3,1.2c-0.8,0.8-1.2,1.9-1.4,3.2L670.8,286.5L670.8,286.5z"/>
		<path class="st0" d="M678.6,279.2h3.9v3.9c0.6-1.3,1.3-2.3,2.3-3.1c1-0.7,2.2-1.1,3.7-1.1v4.1h-0.2c-0.8,0-1.6,0.2-2.4,0.4
			c-0.7,0.2-1.3,0.7-1.8,1.2c-0.5,0.6-0.9,1.2-1.1,2.1c-0.2,0.8-0.4,1.8-0.4,3v6.5h-3.9V279.2z"/>
		<path class="st0" d="M691.9,279.2h3.9v2.9c0.7-0.9,1.4-1.6,2.3-2.3c0.9-0.6,2.1-0.9,3.4-0.9c1,0,2,0.2,3,0.6
			c0.9,0.4,1.8,1,2.5,1.7s1.3,1.6,1.8,2.8c0.4,1.1,0.7,2.4,0.7,3.8v0.1c0,1.4-0.2,2.7-0.7,3.8c-0.4,1.1-1.1,2.1-1.7,2.8
			c-0.7,0.7-1.6,1.3-2.5,1.7c-1,0.4-2,0.6-3,0.6c-1.4,0-2.5-0.3-3.4-0.9c-0.9-0.6-1.6-1.3-2.3-2.1v7.8H692L691.9,279.2L691.9,279.2z
			 M700.7,293.2c0.7,0,1.3-0.2,1.9-0.4s1.1-0.7,1.6-1.1c0.4-0.5,0.8-1.1,1.1-1.7s0.4-1.4,0.4-2.3v-0.1c0-0.8-0.2-1.6-0.4-2.2
			c-0.2-0.7-0.6-1.2-1.1-1.7c-0.4-0.5-1-0.8-1.6-1.1s-1.2-0.4-1.9-0.4s-1.3,0.2-1.9,0.4c-0.6,0.2-1.1,0.7-1.6,1.1
			c-0.4,0.5-0.8,1.1-1.1,1.7c-0.2,0.7-0.4,1.4-0.4,2.2v0.1c0,0.8,0.2,1.6,0.4,2.2c0.2,0.7,0.7,1.2,1.1,1.7c0.4,0.5,1,0.8,1.6,1.1
			C699.3,293.1,700,293.2,700.7,293.2"/>
		<rect x="713.1" y="291.9" class="st0" width="4.3" height="4.4"/>
		<path class="st0" d="M722.1,279.2h3.9v2.6c0.2-0.4,0.6-0.8,0.9-1.1c0.3-0.3,0.7-0.7,1.1-1c0.4-0.2,0.9-0.5,1.5-0.7
			c0.5-0.2,1.1-0.2,1.8-0.2c1.9,0,3.4,0.6,4.4,1.8c1.1,1.1,1.6,2.8,1.6,4.8v10.8h-3.9v-9.6c0-1.3-0.3-2.4-0.9-3
			c-0.7-0.7-1.5-1.1-2.6-1.1c-1.1,0-2.1,0.3-2.7,1.1c-0.7,0.7-1.1,1.8-1.1,3.1v9.6h-3.9L722.1,279.2L722.1,279.2z"/>
		<path class="st0" d="M749.6,301.5c-2.8,0-5.3-0.7-7.6-2l1.5-3c0.9,0.6,1.8,1,2.8,1.3s2.1,0.5,3.2,0.5c1.7,0,3-0.4,4-1.3
			c0.9-0.9,1.4-2.2,1.4-3.9v-1.3c-0.7,0.9-1.6,1.6-2.5,2.2c-1,0.6-2.1,0.9-3.5,0.9c-1,0-2-0.2-2.9-0.6c-0.9-0.3-1.7-0.9-2.5-1.6
			c-0.7-0.7-1.3-1.5-1.7-2.5c-0.4-1-0.7-2.1-0.7-3.4v-0.1c0-1.2,0.2-2.4,0.7-3.4s1-1.8,1.7-2.5c0.7-0.7,1.6-1.2,2.5-1.6
			c0.9-0.3,1.9-0.6,2.9-0.6c1.5,0,2.6,0.2,3.5,0.8s1.7,1.2,2.4,2.1v-2.5h3.9v13.5c0,2.9-0.7,5-2.1,6.4c-0.7,0.7-1.7,1.3-2.9,1.7
			C752.5,301.3,751.1,301.5,749.6,301.5 M749.9,291.6c0.7,0,1.3-0.1,1.9-0.3c0.6-0.2,1.1-0.6,1.6-1c0.4-0.4,0.8-0.9,1.1-1.5
			c0.2-0.6,0.4-1.2,0.4-1.9v-0.1c0-0.7-0.2-1.3-0.4-1.9c-0.2-0.6-0.7-1.1-1.1-1.5c-0.4-0.4-1-0.7-1.6-1c-0.6-0.2-1.2-0.3-1.9-0.3
			c-0.7,0-1.3,0.1-1.9,0.3c-0.6,0.2-1.1,0.6-1.6,1c-0.4,0.4-0.8,0.9-1.1,1.5c-0.2,0.6-0.4,1.2-0.4,1.9v0.1c0,0.7,0.2,1.3,0.4,1.9
			c0.2,0.6,0.6,1.1,1.1,1.5c0.4,0.4,0.9,0.7,1.6,1C748.6,291.5,749.2,291.6,749.9,291.6"/>
		<path class="st0" d="M771.6,296.6c-1.3,0-2.5-0.2-3.6-0.7c-1.1-0.5-2.1-1.1-2.9-1.9c-0.8-0.8-1.4-1.7-1.9-2.8
			c-0.4-1.1-0.7-2.2-0.7-3.4v-0.1c0-1.2,0.2-2.4,0.7-3.4c0.5-1.1,1.1-2.1,1.9-2.8c0.8-0.8,1.7-1.5,2.9-1.9c1.1-0.5,2.3-0.7,3.6-0.7
			s2.5,0.2,3.6,0.7c1.1,0.5,2.1,1.1,2.9,1.9c0.8,0.8,1.4,1.7,1.9,2.8c0.4,1.1,0.7,2.2,0.7,3.4v0.1c0,1.2-0.2,2.4-0.7,3.4
			c-0.5,1.1-1.1,2.1-1.9,2.8c-0.8,0.8-1.8,1.5-2.9,1.9C774.2,296.4,772.9,296.6,771.6,296.6 M771.7,293.3c0.8,0,1.5-0.2,2.1-0.4
			c0.7-0.3,1.1-0.7,1.6-1.1c0.4-0.5,0.8-1.1,1-1.7c0.2-0.7,0.3-1.3,0.3-2.1v-0.1c0-0.7-0.2-1.5-0.4-2.1c-0.2-0.7-0.6-1.2-1.1-1.7
			c-0.5-0.5-1-0.9-1.6-1.1c-0.7-0.3-1.3-0.4-2.1-0.4c-0.8,0-1.5,0.2-2.1,0.4c-0.7,0.3-1.1,0.7-1.6,1.1c-0.4,0.5-0.8,1.1-1,1.7
			c-0.2,0.7-0.3,1.4-0.3,2.1v0.1c0,0.7,0.2,1.5,0.4,2.1c0.2,0.7,0.6,1.2,1.1,1.7c0.5,0.5,1,0.9,1.6,1.1
			C770.3,293.1,771,293.3,771.7,293.3"/>
	</g>
</g>
</svg>
