<svg width="549" height="348" viewBox="0 0 549 348" fill="none" xmlns="http://www.w3.org/2000/svg">
<g clip-path="url(#clip0_54940_66)">
<path d="M122.38 148.4C117.83 149.13 113.59 148.99 110.39 148.15C110.26 148.12 110.15 148.12 110.02 148.09C108.92 147.77 107.77 147.59 106.57 147.59C106.09 147.59 105.63 147.62 105.17 147.68C104.19 147.74 103.16 148.01 102.09 148.45C101.96 148.5 101.82 148.55 101.69 148.61C101.49 148.7 101.29 148.8 101.09 148.9C100.74 149.07 100.4 149.26 100.07 149.47C98.17 150.62 96.27 152.25 94.61 154.34C91.65 158.06 87.77 169.96 81.17 167.98C87.04 170.47 89.06 165.49 91.95 163.12C91.6 165.35 91.87 167.59 92.68 169.6C92.65 182.52 84.27 187.72 84.27 187.72C84.27 187.72 84.23 187.72 84.22 187.74C84.06 188 85.39 189.09 87.2 190.18C89 191.26 90.59 191.93 90.75 191.66C90.75 191.66 90.75 191.64 90.75 191.63C90.75 191.63 90.77 191.64 90.77 191.65L92 187.89L98.95 179.39L99.39 178.85C100.14 178.61 100.96 178.24 101.88 177.69C102.94 177.06 103.87 176.34 104.67 175.56C103.91 176.91 102.76 178.23 101.33 179.42C105.6 188.55 104.46 191.05 104.46 191.05V191.06C104.46 191.37 105.8 191.62 107.45 191.62C109.1 191.62 110.44 191.37 110.44 191.06V187.33L106.56 176.15C111.06 176.74 115.45 176.26 119.49 174.92C120.41 183.18 117.82 190.55 117.65 191.01C117.65 191.03 117.62 191.04 117.62 191.06C117.62 191.37 119.26 191.62 121.28 191.62C123.3 191.62 124.92 191.37 124.93 191.07V187.76L126.71 181.51C128.31 183.54 129.72 185.85 130.77 188.5L131.4 191.37H131.42C131.52 191.66 133.03 191.4 134.8 190.8C136.56 190.19 137.91 189.46 137.81 189.17L135.38 185.74L129.66 171.2L129.69 171.09C129.6 170.8 129.53 170.52 129.48 170.23C129.42 169.92 129.38 169.62 129.35 169.32C129.33 169.09 129.34 168.88 129.35 168.66C129.35 168.53 129.36 168.39 129.37 168.26C129.39 168.04 129.42 167.83 129.47 167.62C129.63 166.96 129.92 166.37 130.38 165.92C131.02 165.31 131.89 165.02 132.87 164.98L122.12 161.57L122.07 161.59C120.24 157.22 120.47 152.44 122.37 148.38M237.67 182.36L240.82 174.2C241.17 175.01 241.52 175.84 241.86 176.71L237.67 182.36ZM291.59 160.24C286.28 160.32 280.93 158.43 276.73 154.52C276.19 154.02 275.69 153.48 275.21 152.94L275.06 152.41C275.85 148.58 275.55 142.46 274 135.74C271.93 126.8 268.34 119.73 265.3 118.11L265.24 117.89L241.27 109.47V109.44C241.27 109.44 241.25 109.46 241.24 109.46L241.17 109.43L241.15 109.55C234.04 116.52 222.72 120.64 210.26 119.83C207.61 119.66 205.04 119.27 202.57 118.69C201.73 118.49 201 118.4 200.33 118.38C199.78 118.33 199.22 118.31 198.65 118.31C192.36 118.31 186.75 121.2 183.06 125.72C180.62 128.58 178.47 132.32 176.99 136.63C174.69 143.32 174.91 160.89 166.44 164.35C166.52 162.97 165.91 161.49 164.63 160.72C164.54 160.67 164.19 160.5 164.1 160.46C163.78 160.36 163.78 160.32 163.25 160.24C162.92 160.23 161.37 159.89 159.94 161.71C159.94 161.71 156.59 164.91 155.17 165.68C153 166.85 151.19 167.13 148.95 166.62C146.45 165.34 147.37 163.37 145.99 157.39C144.48 150.85 141.63 145.92 139.63 146.38C139.26 146.47 138.92 146.69 138.61 146.99L126.73 142.29C126.25 142.62 125.65 143.38 125.02 144.39C125.04 144.37 125.06 144.34 125.08 144.31C124.84 144.65 124.65 145.01 124.44 145.37C124.14 145.91 123.85 146.5 123.56 147.11C121.8 151.17 121.69 155.9 123.61 160.2L136.55 165.86L139.32 167.05C140.75 169.15 143.67 171.65 149.56 171.52C150.05 171.51 150.54 171.44 151.02 171.34C153.23 171.04 155.77 170.13 158.21 167.98C159.62 166.74 161.02 164.9 161.5 164.21C161.64 163.88 162.08 163.6 162.45 163.47C162.8 163.34 163.01 163.38 163.33 163.52C163.42 163.56 163.49 163.61 163.55 163.65C163.77 163.8 163.95 164.02 164.05 164.29C164.05 164.3 164.05 164.31 164.05 164.32C164.12 164.53 164.16 164.72 164.18 164.9C164.03 164.91 163.89 164.94 163.74 164.95C163.9 164.95 164.03 164.95 164.18 164.95C164.27 165.99 163.56 166.54 163.11 166.63C163 166.65 162.92 166.65 162.86 166.62C162.86 166.62 162.84 166.62 162.83 166.61C162.83 166.61 162.83 166.61 162.82 166.6C162.78 166.58 162.75 166.55 162.73 166.52C162.61 166.41 162.46 166.35 162.29 166.36C161.97 166.39 161.69 166.66 161.76 166.99C161.86 167.29 162.05 167.44 162.31 167.56C162.66 167.71 163.26 167.84 164.22 167.49C165.18 167.14 165.55 166.65 165.89 166.16C166.15 165.78 166.32 165.35 166.41 164.89C175.42 163.83 174.86 153.87 179.21 149.71C179.7 151.6 180.43 153.39 181.41 155.02C181.97 157.7 182.41 161.05 182.52 164.76C182.17 183.72 178.3 190.67 178.25 190.75C178.25 190.75 178.24 190.76 178.24 190.77C178.24 191.27 181.02 191.68 184.45 191.68C187.88 191.68 190.66 191.27 190.66 190.77L190.96 183.65L194.96 173L195.49 171.58C197.63 171.07 199.85 170.2 202.02 168.93C203.76 167.91 205.29 166.73 206.6 165.46C205.35 167.69 203.46 169.89 201.07 171.84C206.42 184.19 205.75 190.76 205.75 190.76C205.75 191.26 207.93 191.67 210.63 191.67C213.33 191.67 215.51 191.26 215.51 190.76L215.34 184.67L209.31 165.65C216.81 165.4 223.88 163.42 230.11 160.09C233.15 175.65 226.02 190.76 226.02 190.76H226.05C226.05 191.26 228.72 191.67 232.02 191.67C235.32 191.67 237.99 191.26 237.99 190.76L237.73 188.28C238.34 188.49 239 188.69 239.71 188.88C242.65 189.67 245.14 189.91 245.27 189.43C245.27 189.41 245.25 189.37 245.25 189.35L252.55 176.03L247.24 158.94C249.39 156.25 250.99 152.27 251.62 147.69L234.08 142.42L233.99 142.45C229.99 132.69 232.23 121.69 239.15 114.27C233.95 121.62 232.69 131.39 236.44 140.11L259.83 150.16L259.91 150.2V144.16L264.73 145.12C265.69 147.36 267.01 149.47 268.63 151.4C267.66 154.2 266.7 159.72 269.12 168.31C269.95 171.26 271.51 173.35 272.29 174.46C272.72 174.87 272.99 175.44 272.99 176.08C272.99 176.72 272.73 177.24 272.33 177.65C272.21 177.76 272.1 177.85 272.02 177.91C271.66 178.16 271.23 178.32 270.76 178.32C270.74 178.32 270.73 178.32 270.71 178.32C268.2 178.28 267.57 176.47 267.7 175.59V175.58C267.73 175.4 267.79 175.27 267.86 175.2C267.86 175.2 267.86 175.2 267.87 175.19C267.88 175.18 267.89 175.16 267.91 175.16C267.91 175.16 267.93 175.16 267.93 175.15C267.99 175.11 268.05 175.08 268.11 175.05C268.11 175.05 268.11 175.05 268.12 175.04C268.35 174.92 268.54 174.72 268.61 174.45C268.74 173.95 268.48 173.36 267.94 173.29C267.43 173.28 267.1 173.48 266.77 173.82C266.35 174.27 265.81 175.12 265.81 176.79C265.81 178.46 266.36 179.29 266.92 180.08C268.77 182.71 273.12 183.46 275.9 181.2C276.03 181.1 276.48 180.65 276.6 180.54C276.93 180.1 277 180.13 277.41 179.36C277.61 178.86 278.99 176.67 277 173.47C277 173.47 272.84 168.62 274.59 156.57C279.77 159.84 285.82 161.1 291.65 160.31M439.31 116.97C432.48 116.97 426.28 114.32 421.65 110C430.91 109.28 438.24 100.32 438.24 90.91C438.24 90.4 438.21 89.95 438.2 89.48C438.22 89.19 438.24 88.91 438.24 88.62C438.24 80.96 432.03 74.75 424.37 74.75C422.8 74.75 421.3 75.04 419.9 75.52C415.61 76.79 412.79 80.23 411.17 80.37C410.33 80.44 410.06 80.13 409.83 79.82C409.83 79.81 409.8 79.8 409.79 79.79C409.42 79.39 408.9 79.12 408.31 79.12C407.19 79.12 406.29 80.02 406.29 81.14C406.29 81.74 406.56 82.26 406.97 82.63H406.94C407.16 82.86 409 84.78 414.86 82.02C418.13 80.48 421.46 80.93 423.16 81.38C424.13 81.69 425.01 82.22 425.73 82.9C425.77 82.94 425.82 82.98 425.86 83.03C426.05 83.21 426.22 83.41 426.38 83.62C426.46 83.72 426.53 83.82 426.6 83.92C426.73 84.1 426.85 84.29 426.96 84.48C427.05 84.63 427.12 84.79 427.19 84.95C427.27 85.12 427.35 85.29 427.41 85.46C427.49 85.68 427.55 85.9 427.6 86.13C427.63 86.27 427.68 86.41 427.71 86.55C427.78 86.93 427.82 87.32 427.82 87.72C427.82 88.12 427.78 88.55 427.7 88.95C427.67 89.08 427.63 89.21 427.6 89.34C427.54 89.6 427.47 89.86 427.37 90.1C427.31 90.25 427.24 90.38 427.18 90.52C427.08 90.74 426.97 90.95 426.85 91.15C426.77 91.29 426.67 91.42 426.58 91.55C426.45 91.74 426.3 91.92 426.15 92.09C426.04 92.21 425.94 92.33 425.82 92.45C425.65 92.61 425.48 92.76 425.29 92.91C425.17 93.01 425.05 93.11 424.92 93.2C424.71 93.35 424.48 93.47 424.26 93.59C424.14 93.65 424.03 93.72 423.91 93.78C423.17 94.12 422.36 94.33 421.51 94.38V94.44C420.68 94.41 418.93 94.15 417.62 93.89C416.27 93.62 386.46 85.44 384.19 84.81C384.19 84.8 384.19 84.76 384.19 84.76C384.18 84.77 384.17 84.78 384.15 84.8C384.08 84.78 384.04 84.77 384.04 84.77L384.02 84.95C373.88 96.29 357.01 103.72 337.92 103.72C333.86 103.72 329.9 103.38 326.08 102.75C324.27 102.45 322.78 102.42 321.52 102.58C314.25 102.85 307.79 106.26 303.49 111.53C300.52 115.01 297.91 119.55 296.11 124.8C293.04 133.72 292.54 147.76 295.3 160.74C295.41 158.24 296.19 143.23 298.48 139.39C298.97 141.86 299.84 144.19 301.02 146.32C301.22 147.98 301.36 149.97 301.43 152.39C299.63 168.83 289.68 190.56 289.68 190.56H289.72C289.72 191.17 293.1 191.66 297.27 191.66C301.44 191.66 304.82 191.17 304.82 190.56C304.82 190.54 304.79 190.53 304.79 190.51L305.16 181.91C305.16 181.91 311.31 168.77 316.16 160.16C316.27 160.14 316.38 160.1 316.49 160.08C319.21 159.48 322.05 158.38 324.81 156.75C326.93 155.5 328.79 154.06 330.39 152.52C328.11 156.29 324.39 159.96 319.59 162.79C318.69 163.32 317.77 163.79 316.86 164.22C318.38 183.39 316.32 190.57 316.32 190.57C316.32 191.18 318.97 191.67 322.25 191.67C325.53 191.67 328.18 191.18 328.18 190.57C328.18 190.57 327.82 184.47 327.26 181.92C327.26 181.92 329.65 168.65 334.53 152.9C342.32 152.52 349.71 150.59 356.4 147.43C361.12 167.26 351.01 190.58 351.01 190.58H351.05C351.05 191.19 354.3 191.68 358.3 191.68C362.3 191.68 365.55 191.19 365.55 190.58L364.63 181.93L374.53 156.31C379.73 162.06 385.38 170.1 389.72 181.01L389.4 190.58H389.42C389.42 191.19 392.42 191.68 396.12 191.68C399.82 191.68 402.82 191.19 402.82 190.58H402.84L402.82 181.93L388.94 138.09C389.63 135.84 390.13 133.4 390.36 130.81C390.48 129.41 390.5 128.04 390.46 126.7L365.44 119.18L365.58 118.4C366.73 105.73 375.18 95.17 386.69 90.98C377.16 95.99 370.46 105.62 369.53 116.89L396.85 128.63V119.66C397.53 119.7 398.2 119.74 398.89 119.74C403.79 119.74 408.43 118.6 412.56 116.57C410.52 114.01 408.89 111.13 407.74 108.01H407.81V108C413.43 115.99 422.7 121.21 433.21 121.21C442.91 121.21 451.57 116.76 457.27 109.8C452.61 114.27 446.29 117.03 439.32 117.03" fill="#1C4689"/>
<path d="M471.11 229.75H472.72V221.23H470.88L468.21 224.89L465.54 221.23H463.69V229.75H465.3V223.56L468.02 227.27H468.34L471.12 223.57V229.75H471.11ZM458.39 229.75H460V222.67H462.71V221.21H455.69V222.67H458.4V229.75H458.39Z" fill="#1C4689"/>
<path d="M114.83 233.57L110.17 238.18C107.22 235.06 103.78 233.5 99.85 233.5C96.43 233.5 93.56 234.63 91.25 236.9C88.94 239.17 87.78 241.93 87.78 245.17C87.78 248.41 88.98 251.37 91.38 253.7C93.78 256.03 96.74 257.2 100.26 257.2C102.55 257.2 104.48 256.72 106.05 255.76C107.62 254.8 108.89 253.29 109.85 251.24H99.78V245.02H117.27L117.32 246.49C117.32 249.53 116.53 252.42 114.96 255.14C113.38 257.87 111.34 259.95 108.84 261.38C106.34 262.81 103.39 263.53 100.02 263.53C96.41 263.53 93.19 262.75 90.36 261.18C87.53 259.61 85.29 257.38 83.65 254.48C82 251.58 81.18 248.45 81.18 245.09C81.18 240.49 82.7 236.48 85.74 233.08C89.35 229.03 94.05 227 99.83 227C102.86 227 105.68 227.56 108.32 228.68C110.54 229.63 112.72 231.25 114.84 233.55L114.83 233.57Z" fill="#A27F58"/>
<path d="M157.62 236.29C160.05 236.29 162.33 236.9 164.46 238.11C166.6 239.32 168.26 240.97 169.46 243.05C170.66 245.13 171.26 247.38 171.26 249.79C171.26 252.2 170.66 254.49 169.45 256.6C168.24 258.71 166.6 260.36 164.52 261.55C162.44 262.74 160.15 263.33 157.64 263.33C153.95 263.33 150.8 262.02 148.2 259.39C145.59 256.77 144.29 253.58 144.29 249.83C144.29 245.81 145.76 242.46 148.71 239.78C151.29 237.45 154.27 236.28 157.62 236.28V236.29ZM157.72 242.37C155.72 242.37 154.05 243.07 152.71 244.46C151.38 245.86 150.71 247.64 150.71 249.82C150.71 252 151.37 253.87 152.69 255.26C154.01 256.65 155.68 257.34 157.7 257.34C159.72 257.34 161.4 256.64 162.74 255.24C164.08 253.84 164.75 252.03 164.75 249.83C164.75 247.63 164.09 245.83 162.77 244.45C161.45 243.07 159.77 242.38 157.71 242.38L157.72 242.37Z" fill="#A27F58"/>
<path d="M176.51 236.96H183.03V249.35C183.03 251.76 183.2 253.44 183.53 254.37C183.86 255.31 184.39 256.04 185.13 256.56C185.86 257.08 186.77 257.34 187.84 257.34C188.91 257.34 189.83 257.08 190.58 256.57C191.33 256.06 191.89 255.31 192.25 254.31C192.52 253.57 192.65 251.98 192.65 249.56V236.96H199.1V247.86C199.1 252.35 198.75 255.43 198.04 257.08C197.17 259.1 195.9 260.65 194.21 261.72C192.52 262.8 190.38 263.34 187.78 263.34C184.96 263.34 182.68 262.71 180.94 261.45C179.2 260.19 177.97 258.43 177.26 256.18C176.76 254.62 176.5 251.78 176.5 247.67V236.96H176.51Z" fill="#A27F58"/>
<path d="M211.99 236.96V239.8C213.16 238.63 214.42 237.76 215.77 237.18C217.12 236.6 218.58 236.31 220.12 236.31C223.48 236.31 226.33 237.58 228.68 240.12C231.03 242.66 232.2 245.91 232.2 249.88C232.2 253.85 230.99 256.91 228.56 259.49C226.13 262.07 223.26 263.35 219.93 263.35C218.45 263.35 217.07 263.09 215.79 262.56C214.51 262.03 213.24 261.17 211.98 259.97V276.32H205.57V236.97H211.98L211.99 236.96ZM218.78 242.25C216.75 242.25 215.06 242.94 213.72 244.33C212.38 245.72 211.71 247.53 211.71 249.77C211.71 252.01 212.38 253.9 213.72 255.31C215.06 256.72 216.75 257.43 218.78 257.43C220.81 257.43 222.41 256.71 223.76 255.28C225.11 253.85 225.78 252.02 225.78 249.8C225.78 247.58 225.12 245.79 223.79 244.37C222.47 242.96 220.8 242.25 218.78 242.25Z" fill="#A27F58"/>
<path d="M250.77 227.9H269.75V234.38H257.34V241.67H269.75V248.03H257.34V256.17H269.75V262.67H250.77V227.89V227.9Z" fill="#1C4689"/>
<path d="M275.56 227.03H282.01V262.68H275.56V227.03Z" fill="#1C4689"/>
<path d="M313.64 251.68H292.91C293.21 253.51 294.01 254.96 295.31 256.04C296.61 257.12 298.27 257.66 300.29 257.66C302.7 257.66 304.77 256.82 306.51 255.13L311.95 257.68C310.59 259.6 308.97 261.03 307.08 261.95C305.19 262.87 302.94 263.33 300.34 263.33C296.31 263.33 293.02 262.06 290.48 259.51C287.94 256.96 286.67 253.78 286.67 249.95C286.67 246.12 287.94 242.77 290.46 240.18C292.99 237.59 296.16 236.29 299.98 236.29C304.03 236.29 307.32 237.59 309.86 240.18C312.4 242.77 313.67 246.2 313.67 250.45L313.65 251.68H313.64ZM307.19 246.6C306.76 245.17 305.92 244 304.67 243.1C303.42 242.2 301.96 241.75 300.3 241.75C298.5 241.75 296.92 242.25 295.56 243.26C294.71 243.89 293.92 245 293.19 246.59H307.19V246.6Z" fill="#1C4689"/>
<path d="M325.28 236.96V239.8C326.45 238.63 327.71 237.76 329.06 237.18C330.41 236.6 331.87 236.31 333.41 236.31C336.77 236.31 339.62 237.58 341.97 240.12C344.32 242.66 345.49 245.91 345.49 249.88C345.49 253.85 344.28 256.91 341.85 259.49C339.42 262.07 336.55 263.35 333.22 263.35C331.74 263.35 330.36 263.09 329.08 262.56C327.8 262.03 326.54 261.17 325.27 259.97V276.32H318.86V236.97H325.27L325.28 236.96ZM332.06 242.25C330.03 242.25 328.34 242.94 327 244.33C325.66 245.72 324.99 247.53 324.99 249.77C324.99 252.01 325.66 253.9 327 255.31C328.34 256.72 330.03 257.43 332.06 257.43C334.09 257.43 335.69 256.71 337.04 255.28C338.39 253.85 339.06 252.02 339.06 249.8C339.06 247.58 338.4 245.79 337.07 244.37C335.75 242.96 334.08 242.25 332.06 242.25Z" fill="#1C4689"/>
<path d="M350.86 227.03H357.27V239.56C358.53 238.47 359.8 237.66 361.08 237.11C362.36 236.57 363.65 236.29 364.96 236.29C367.51 236.29 369.66 237.17 371.41 238.94C372.91 240.47 373.66 242.71 373.66 245.68V262.68H367.3V251.4C367.3 248.42 367.16 246.4 366.87 245.35C366.58 244.3 366.1 243.51 365.42 242.99C364.73 242.47 363.89 242.21 362.88 242.21C361.57 242.21 360.45 242.64 359.51 243.51C358.57 244.38 357.92 245.56 357.56 247.06C357.37 247.83 357.28 249.6 357.28 252.36V262.69H350.87V227.04L350.86 227.03Z" fill="#1C4689"/>
<path d="M398.87 236.96H405.32V262.68H398.87V259.96C397.61 261.16 396.35 262.02 395.08 262.55C393.81 263.08 392.44 263.34 390.96 263.34C387.64 263.34 384.77 262.05 382.34 259.48C379.92 256.9 378.7 253.7 378.7 249.87C378.7 246.04 379.87 242.64 382.22 240.11C384.57 237.58 387.41 236.3 390.77 236.3C392.31 236.3 393.76 236.59 395.11 237.17C396.46 237.75 397.72 238.63 398.86 239.79V236.95L398.87 236.96ZM392.08 242.25C390.08 242.25 388.43 242.96 387.11 244.37C385.79 245.78 385.13 247.59 385.13 249.8C385.13 252.01 385.8 253.85 387.14 255.28C388.48 256.71 390.14 257.43 392.1 257.43C394.06 257.43 395.81 256.72 397.14 255.31C398.48 253.9 399.14 252.05 399.14 249.77C399.14 247.49 398.47 245.72 397.14 244.33C395.81 242.94 394.12 242.25 392.07 242.25H392.08Z" fill="#1C4689"/>
<path d="M411.85 236.96H418.3V239.6C419.76 238.37 421.09 237.51 422.28 237.03C423.47 236.55 424.68 236.31 425.93 236.31C428.48 236.31 430.64 237.2 432.42 238.98C433.92 240.49 434.66 242.73 434.66 245.69V262.69H428.28V251.43C428.28 248.36 428.14 246.32 427.87 245.31C427.59 244.3 427.12 243.53 426.43 243.01C425.75 242.48 424.9 242.22 423.9 242.22C422.59 242.22 421.47 242.66 420.54 243.53C419.61 244.4 418.96 245.61 418.59 247.16C418.4 247.96 418.31 249.7 418.31 252.38V262.7H411.86V236.98L411.85 236.96Z" fill="#1C4689"/>
<path d="M443.27 231.22V237.61H438.64V242.9H443.27V253.62C443.27 259.81 446.79 262.88 452.18 262.68C454.04 262.63 455.5 262.33 457.26 261.62L455.55 256.39C454.64 256.84 453.54 257.14 452.58 257.14C450.67 257.14 449.36 255.98 449.36 253.62V242.9H456.26V237.61H449.41V230.56L443.27 231.21V231.22Z" fill="#1C4689"/>
<path d="M123.01 237.86V262.68H129.42V249.59C129.42 245.01 132.39 243.3 135.61 243.3C137.62 243.3 138.78 243.85 140.04 244.91L142.81 239.57C141.45 238.21 138.98 237.2 136.42 237.2C133.86 237.2 131.34 237.65 129.42 240.72L128.97 237.85H123.01V237.86Z" fill="#A27F58"/>
</g>
<defs>
<clipPath id="clip0_54940_66">
<rect width="549" height="348" fill="white"/>
</clipPath>
</defs>
</svg>
