<?xml version="1.0" standalone="no"?>
<!DOCTYPE svg PUBLIC "-//W3C//DTD SVG 1.1//EN" "http://www.w3.org/Graphics/SVG/1.1/DTD/svg11.dtd">
<svg xmlns="http://www.w3.org/2000/svg" id="Layer_1" viewBox="0 0 530 163.77" width="530" height="163.77000427246094"><defs><style>.cls-1{fill:#ffffff;}.cls-2{fill:#ffffff;}</style></defs><g><path class="cls-1" d="M126.92,39.81c-3.82-.78-8.57-1.2-12.42-1.2-21.5,0-42.63,12.14-45.67,30.59-.13,.77,0,3.12,0,3.12h41.92c2.02,0,3.67,1.64,3.67,3.67v11.9c0,2.03-1.64,3.67-3.67,3.67h-41.92s-.13,2.35,0,3.12c3.04,18.45,24.17,30.59,45.67,30.59,3.85,0,8.6-.42,12.42-1.21V39.81Z"/><path class="cls-1" d="M500.86,35.83c.78-.4,1.32-.87,1.73-1.49,.36-.63,.54-1.3,.54-1.97,0-.62-.14-1.2-.41-1.68-.28-.52-.63-.9-1.08-1.19-.47-.28-1.14-.38-2.01-.38h-3.69v12.16h1.82v-5.11h1.37c.19,0,.46,.37,.91,1.19l.36,.72,1.61,3.2h2.04l-1.92-3.73c-.44-.91-.86-1.48-1.27-1.71m-1.83-1.15h-1.28v-4.12h1.37c.64,0,1.1,.09,1.32,.29,.28,.18,.46,.41,.6,.67,.12,.29,.22,.62,.22,.96,0,.51-.18,1.06-.5,1.54-.32,.42-.9,.67-1.74,.67"/><path class="cls-1" d="M489.58,35.16c0-5.45,4.41-9.86,9.86-9.86h0c5.45,0,9.86,4.42,9.86,9.86h0c0,5.45-4.41,9.86-9.86,9.86h0c-5.45,0-9.86-4.41-9.86-9.86h0Zm1.36,0c0,4.69,3.81,8.49,8.5,8.5h0c4.69,0,8.49-3.81,8.5-8.5h0c0-4.69-3.81-8.49-8.5-8.5h0c-4.69,0-8.49,3.81-8.5,8.5h0Z"/><path class="cls-1" d="M198.2,67.57c0-21.37-12.18-38.72-53.02-38.72v114.85h11.52v-37.68c27.37-4.39,41.5-24.06,41.5-38.46Zm-41.49,27.99V39.64c16.86,3.22,29.31,14.52,29.31,27.96s-12.45,24.74-29.31,27.96Z"/><rect class="cls-1" x="215.58" y="28.86" width="11.81" height="114.86"/><path class="cls-1" d="M351.39,91.43c0,22.1-11.84,40.01-26.44,40.01s-26.44-17.92-26.44-40.01c0-.06,0-62.51,0-62.57h-11.8c0,.06,0,62.51,0,62.57,0,28.78,17.12,52.12,38.24,52.12s38.24-23.34,38.24-52.12c0-.06,0-62.51,0-62.57h-11.79c0,.06,0,62.51,0,62.57Z"/><polygon class="cls-1" points="432.06 141.88 477.49 144.46 476.84 131.07 443.88 130.86 443.88 90.45 471.68 91.09 471.68 78.48 443.88 79.13 443.88 41.84 475.27 41.84 474.62 28.74 432.06 31.32 432.06 141.88"/><path class="cls-1" d="M377.4,133.55s.02,0,.11-.04h0c.09-.04,.24-.09,.43-.17h0c.39-.15,.96-.38,1.69-.68h0c.73-.31,1.61-.69,2.6-1.14h0c.99-.45,2.09-.97,3.27-1.56h0c1.18-.59,2.43-1.24,3.71-1.95h0c1.28-.71,2.59-1.48,3.9-2.3h0c1.31-.82,2.6-1.7,3.86-2.61h0c1.24-.91,2.44-1.87,3.55-2.85h0c1.11-.98,2.13-1.99,3.02-3.01h0c.89-1.01,1.65-2.03,2.27-3.03h0c.61-1,1.08-1.98,1.4-2.92h0c.32-.95,.49-1.85,.52-2.77h0v0h0s0,0,0,0h0c0-.14,0-.26,0-.35h0c0-.81-.11-1.63-.35-2.52h0c-.28-1.02-.75-2.13-1.5-3.35h0c-.75-1.22-1.77-2.55-3.15-3.97h0s-.04-.04-.07-.07h0c-.09-.08-.24-.21-.42-.35h0c-.37-.3-.88-.7-1.48-1.15h0c-1.2-.9-2.72-2.02-4.28-3.14h0c-3.15-2.27-6.32-4.5-7.76-5.59h0c-2.69-2.04-4.98-4.11-6.91-6.21h0c-1.93-2.1-3.5-4.24-4.71-6.43h0c-1.21-2.19-2.05-4.43-2.51-6.67h0c-.29-1.41-.43-2.81-.43-4.18h0c0-.84,.05-1.66,.15-2.47h0c.26-2.14,.84-4.18,1.66-6.08h0c.82-1.9,1.85-3.66,3.03-5.3h0c1.18-1.64,2.5-3.16,3.91-4.57h0c1.41-1.42,2.9-2.73,4.43-3.95h0c1.54-1.23,3.11-2.36,4.69-3.41h0c1.58-1.05,3.16-2.02,4.69-2.91h0c1.53-.88,3.03-1.69,4.44-2.41h0c1.41-.72,2.74-1.36,3.93-1.91h0c1.2-.55,2.27-1.02,3.17-1.4h0c.9-.38,1.63-.67,2.15-.88h0c.52-.2,.82-.31,.86-.33h0s4.3,11.15,4.3,11.15c0,0-.02,.01-.12,.05h0c-.1,.04-.25,.1-.46,.18h0c-.42,.16-1.04,.41-1.83,.74h0c-.79,.33-1.74,.75-2.8,1.23h0c-1.06,.49-2.24,1.05-3.48,1.69h0c-1.25,.64-2.56,1.34-3.89,2.11h0c-1.33,.77-2.69,1.6-4.01,2.48h0c-1.33,.88-2.62,1.82-3.85,2.79h0c-1.22,.97-2.36,1.99-3.39,3.02h0c-1.02,1.03-1.93,2.08-2.67,3.12h0c-.75,1.04-1.34,2.07-1.76,3.06h0c-.43,1-.69,1.95-.8,2.9h0c-.05,.37-.07,.73-.07,1.08h0c0,.6,.06,1.2,.19,1.84h0c.21,1.03,.61,2.14,1.3,3.39h0c.69,1.25,1.67,2.63,3.04,4.12h0c1.37,1.49,3.13,3.09,5.33,4.77h0c.86,.66,3.56,2.57,6.31,4.54h0c2.79,2,5.67,4.08,7.51,5.57h0c.55,.45,.98,.81,1.54,1.37h0c1.92,1.98,3.52,4,4.79,6.08h0c1.27,2.07,2.21,4.2,2.8,6.34h0c.52,1.87,.77,3.76,.77,5.6h0c0,.28,0,.53-.01,.74h0v.11s0-.06,0-.06c-.08,2.09-.48,4.11-1.12,6.01h0c-.64,1.9-1.5,3.68-2.53,5.34h0c-1.02,1.66-2.2,3.21-3.47,4.66h0c-1.27,1.45-2.65,2.8-4.08,4.07h0c-1.43,1.27-2.92,2.45-4.44,3.56h0c-1.51,1.11-3.05,2.14-4.57,3.1h0c-1.52,.96-3.03,1.84-4.48,2.65h0c-1.46,.81-2.87,1.55-4.19,2.21h0c-1.33,.66-2.56,1.25-3.68,1.76h0c-1.11,.51-2.1,.93-2.93,1.28h0c-.83,.35-1.51,.62-1.97,.8h0c-.48,.19-.75,.29-.79,.3h0l-4.35-11.13h0Zm30.32-25.06h0s0,.01,0,.02h0s0-.02,0-.02h0Z"/></g><g><path class="cls-2" d="M126.92,143.71v-10.26h-12.93c-42.38-.02-76.72-23.32-76.72-52.05S71.61,29.37,113.99,29.34h12.93v-10.27h-12.93c-52.6,.02-93.29,24.6-93.29,62.32s40.69,62.29,93.29,62.32h12.93Z"/><path class="cls-2" d="M257.62,89.79c4.65,0,8.44-3.77,8.44-8.43s-3.79-8.45-8.44-8.45-8.44,3.79-8.44,8.45,3.78,8.43,8.44,8.43"/></g></svg>